<svg id="Calque_1" data-name="Calque 1" xmlns="http://www.w3.org/2000/svg" viewBox="0 0 105.69 91.98"><defs><style>.cls-1{fill:#032552;}.cls-2{fill:#e83d47;}</style></defs><path class="cls-1" d="M83.24,63.17H58.15a.58.58,0,0,0-.29.15c-.08.08-.08.15-.08.3v.07c0,.22-.14-.1-.36-.1H45.61c-.22,0-.37.32-.37.1v-.07a.48.48,0,0,0-.07-.3.42.42,0,0,0-.3-.15H19.78a1.14,1.14,0,0,0-1.11,1.11v.81c0,.89,5.46,1.85,5.54,1.85H78.82c.07,0,5.53-1,5.53-1.85v-.81A1.14,1.14,0,0,0,83.24,63.17Z"/><path class="cls-2" d="M83.61,65a27.9,27.9,0,0,1-4.79,1.25H24.21A28.23,28.23,0,0,1,19.41,65v-.67a.35.35,0,0,1,.37-.37H44.5a1.17,1.17,0,0,0,1,.81H57.34a1,1,0,0,0,1-.81H83.24a.35.35,0,0,1,.37.37Z"/><path class="cls-1" d="M22.78,27.71v36.2H80.24V27.71ZM78.88,62H24.14V29.27H78.88Z"/><polygon class="cls-1" points="36.49 49.51 36.71 49.39 56.73 37.83 56.94 37.71 56.7 37.28 56.48 37.4 36.46 48.96 36.25 49.09 36.49 49.51"/><polygon class="cls-1" points="46.08 53.51 46.33 53.94 46.54 53.82 66.56 42.26 66.78 42.13 66.53 41.71 66.32 41.83 46.3 53.39 46.08 53.51"/></svg>