<svg id="Calque_1" data-name="Calque 1" xmlns="http://www.w3.org/2000/svg" viewBox="0 0 105.69 91.98"><defs><style>.cls-1{fill:#e83d47;}.cls-2{fill:#032552;}</style></defs><path class="cls-1" d="M37.8,27.62h2.4a7.18,7.18,0,0,1,1.65.19l.12,0a5,5,0,0,1,.62.18l.07,0a5.09,5.09,0,0,1,.57.26c.75.42,1.1.91,1.1,1.38V56.06h0v.62h0a3.46,3.46,0,0,1-.09.78,2.54,2.54,0,0,1-.1.37,3.55,3.55,0,0,1-.31.69,4.13,4.13,0,0,1-3.63,2H37.8l-.43,0L37,60.47l-.4-.1a2.43,2.43,0,0,1-.38-.13,3.52,3.52,0,0,1-.7-.35l-.32-.23a3.47,3.47,0,0,1-.29-.25,3.81,3.81,0,0,1-.71-.89h0a3.59,3.59,0,0,1-.17-.34,4.34,4.34,0,0,1-.24-.72,4,4,0,0,1-.08-.78h0v-27c0-.47.35-1,1.09-1.38a6.47,6.47,0,0,1,3-.69Z"/><path class="cls-2" d="M27.61,31.5V67.63H78.07V31.51H45.36V29.69A2.61,2.61,0,0,0,44,27.56V20.05a2.12,2.12,0,0,0-.31-1.12,1.23,1.23,0,0,0-1-.58h0a1.2,1.2,0,0,0-1,.58,2,2,0,0,0-.31,1.12v6.62a9.42,9.42,0,0,0-1.2-.08H37.8a7.41,7.41,0,0,0-3.54.82,2.73,2.73,0,0,0-1.62,2.28v1.83ZM42.69,19.38s0,0,.11.12a1,1,0,0,1,.14.55v7l-.51-.16V20.05a1.1,1.1,0,0,1,.14-.55c.07-.12.11-.12.12-.12ZM37.8,27.62h2.4a7.18,7.18,0,0,1,1.65.19l.12,0a5,5,0,0,1,.62.18l.07,0a5.09,5.09,0,0,1,.57.26c.75.42,1.1.91,1.1,1.38V56.06h0v.62h0a3.46,3.46,0,0,1-.09.78,2.54,2.54,0,0,1-.1.37,3.55,3.55,0,0,1-.31.69,4.13,4.13,0,0,1-3.63,2H37.8l-.43,0L37,60.47l-.4-.1a2.43,2.43,0,0,1-.38-.13,3.52,3.52,0,0,1-.7-.35l-.32-.23a3.47,3.47,0,0,1-.29-.25,3.81,3.81,0,0,1-.71-.89h0a3.59,3.59,0,0,1-.17-.34,4.34,4.34,0,0,1-.24-.72,4,4,0,0,1-.08-.78h0v-27c0-.47.35-1,1.09-1.38a6.47,6.47,0,0,1,3-.69Zm-5.16,5.07v1.22h0V56.06h0v.62h0a4.19,4.19,0,0,0,0,.5,2.78,2.78,0,0,0,.08.49,3.59,3.59,0,0,0,.12.47,4.22,4.22,0,0,0,.18.45,3.48,3.48,0,0,0,.22.43,4.63,4.63,0,0,0,.89,1.13c.11.11.24.21.36.31a3.6,3.6,0,0,0,.4.28h0l.43.25h0l.45.21h0a5.54,5.54,0,0,0,1.47.35,4.71,4.71,0,0,0,.53,0h2.4a4.41,4.41,0,0,0,.52,0,5.52,5.52,0,0,0,1.48-.35,5.29,5.29,0,0,0,1.64-1.05A4.78,4.78,0,0,0,45,58.59a4.22,4.22,0,0,0,.18-.45h0a4.7,4.7,0,0,0,.23-1.46h0v-.62h0V33.91h0V32.67H76.78V66.22H28.9V32.68ZM51,35.06a.51.51,0,0,0-.51.51v6.71a.51.51,0,0,0,.51.52H73.23a.52.52,0,0,0,.52-.52V35.57a.51.51,0,0,0-.52-.51Zm.52,1H72.72v5.67H51.56Zm-3.72,8.52v1H58.09v-1Zm17.61.49a.67.67,0,0,0-.24.07l-3.67,2.12a.51.51,0,0,0-.18.7.47.47,0,0,0,.18.19l3.67,2.12a.51.51,0,0,0,.7-.19.48.48,0,0,0,.07-.26V45.62a.52.52,0,0,0-.52-.52h0Zm3.72,0a.52.52,0,0,0-.53.51h0v4.23a.52.52,0,0,0,.51.52.59.59,0,0,0,.26-.07l3.67-2.12a.51.51,0,0,0,.18-.7.47.47,0,0,0-.18-.19l-3.67-2.12a.67.67,0,0,0-.24-.07ZM65,46.51V49l-2.12-1.22L65,46.51Zm4.72,0,2.12,1.23L69.67,49V46.51Zm-21.83.71v1H58.09v-1Zm-6.22.47,0,10.48h1l0-10.49Zm6.22,1.9v1H58.09v-1Zm0,2.73v1H58.09v-1Zm13.52,1a.51.51,0,0,0-.51.52v1.41a.51.51,0,0,0,.51.52h1.55a.52.52,0,0,0,.52-.52V53.87a.52.52,0,0,0-.52-.52Zm5.22,0a.52.52,0,0,0-.52.52v1.41a.52.52,0,0,0,.52.52h1.55a.51.51,0,0,0,.51-.52V53.87a.51.51,0,0,0-.51-.52Zm5.1,0a.52.52,0,0,0-.52.52v1.41a.52.52,0,0,0,.52.52h1.55a.51.51,0,0,0,.51-.52V53.87a.51.51,0,0,0-.51-.52Zm-9.8,1h.51v.39h-.51Zm5.22,0h.51v.39H67.1Zm5.1,0h.51v.39H72.2ZM61.36,57.33a.51.51,0,0,0-.51.52v1.41a.51.51,0,0,0,.51.52h1.55a.52.52,0,0,0,.52-.52V57.85a.52.52,0,0,0-.52-.52Zm5.22,0a.52.52,0,0,0-.52.52v1.41a.52.52,0,0,0,.52.52h1.55a.51.51,0,0,0,.51-.52V57.85a.51.51,0,0,0-.51-.52Zm5.1,0a.52.52,0,0,0-.52.52v1.41a.52.52,0,0,0,.52.52h1.55a.51.51,0,0,0,.51-.52V57.85a.51.51,0,0,0-.51-.52Zm-9.8,1h.51v.39h-.51Zm5.22,0h.51v.39H67.1Zm5.1,0h.51v.39H72.2ZM61.36,61.67a.51.51,0,0,0-.51.51V63.6a.52.52,0,0,0,.51.52h1.55a.53.53,0,0,0,.52-.52V62.18a.52.52,0,0,0-.52-.51Zm5.22,0a.52.52,0,0,0-.52.51V63.6a.53.53,0,0,0,.52.52h1.55a.52.52,0,0,0,.51-.52V62.18a.51.51,0,0,0-.51-.51Zm5.1,0a.52.52,0,0,0-.52.51V63.6a.53.53,0,0,0,.52.52h1.55a.52.52,0,0,0,.51-.52V62.18a.51.51,0,0,0-.51-.51Zm-9.8,1h.51v.38h-.51Zm5.22,0h.51v.38H67.1Zm5.1,0h.51v.38H72.2Z"/></svg>