<svg id="Calque_1" data-name="Calque 1" xmlns="http://www.w3.org/2000/svg" viewBox="0 0 105.69 91.98"><defs><style>.cls-1{fill:#e83d47;}.cls-2{fill:#032552;}</style></defs><path class="cls-1" d="M58.05,36.65a2,2,0,0,1,1.43-1.89l3.54-1,.15.2a2.92,2.92,0,0,0,4.88,0l.16-.2,3.53,1a2,2,0,0,1,1.43,1.89V46a1.18,1.18,0,0,1-2.35,0V38.84a.42.42,0,1,0-.84,0v6H61.25v-6a.43.43,0,0,0-.43-.43.4.4,0,0,0-.39.34l0,.12v.54l-.56-.4a3.12,3.12,0,0,0-.64-.28l-1.15-.33Z"/><path class="cls-1" d="M50.25,38.54l.15.2a2.92,2.92,0,0,0,4.88,0l.16-.2,3.53,1a2,2,0,0,1,1.43,1.9v9.37a1.18,1.18,0,0,1-2.35,0v-8a.41.41,0,0,0-.12-.3.44.44,0,0,0-.72.3v6.76H48.48V42.83a.43.43,0,1,0-.85,0v8a1.18,1.18,0,0,1-2.35,0V41.44a2,2,0,0,1,1.43-1.9Z"/><path class="cls-1" d="M35.28,38.41a.42.42,0,0,0-.42.43V46a1.18,1.18,0,0,1-2.35,0V36.65a2,2,0,0,1,1.43-1.89l3.54-1,.15.2a2.92,2.92,0,0,0,4.88,0l.16-.2,3.53,1a2,2,0,0,1,1.43,1.89V38.4l-1.15.33a2.84,2.84,0,0,0-.63.28l-.23.13-.34.27,0-.66a.42.42,0,0,0-.4-.34.42.42,0,0,0-.42.43v6H35.71v-6A.43.43,0,0,0,35.28,38.41Z"/><path class="cls-2" d="M33.69,48a2,2,0,0,0,.9-.23l.49-.25.8,8.35.08.86.38,4a1.82,1.82,0,0,0,1.82,1.65H42a1.82,1.82,0,0,0,1.82-1.65l.84-8.83.54.45a2,2,0,0,0,2.17.23l.49-.25,1.26,13.19a1.82,1.82,0,0,0,1.82,1.65h3.83a1.82,1.82,0,0,0,1.82-1.65l1.25-13.19.49.25a2,2,0,0,0,2.17-.23l.55-.45.84,8.83A1.82,1.82,0,0,0,63.7,62.4h3.83a1.82,1.82,0,0,0,1.82-1.65l.38-4,.08-.86.79-8.35.49.25A2,2,0,0,0,74,46V36.65a2.84,2.84,0,0,0-2-2.71l-3.54-1V31.05l.12-.11A4.4,4.4,0,0,0,70,27.66V26.07a4.42,4.42,0,1,0-8.83,0v1.59a4.43,4.43,0,0,0,1.47,3.28l.12.12v1.87l-3.54,1a2.84,2.84,0,0,0-2,2.71v1.51l-1.55-.44V35.84l.12-.11a4.4,4.4,0,0,0,1.48-3.28V30.86a4.42,4.42,0,1,0-8.83,0v1.59a4.44,4.44,0,0,0,1.47,3.28l.13.11v1.88l-1.55.44V36.65a2.84,2.84,0,0,0-2-2.71l-3.54-1V31.05l.12-.11a4.4,4.4,0,0,0,1.48-3.28V26.07a4.42,4.42,0,1,0-8.83,0v1.59a4.43,4.43,0,0,0,1.47,3.28l.13.11v1.88l-3.55,1a2.84,2.84,0,0,0-2,2.71V46A2,2,0,0,0,33.69,48Zm6,12.27a1.25,1.25,0,0,1-2.49.12L35.75,45.64h3.9Zm3.34.12a1.25,1.25,0,0,1-2.49-.12V45.64h3.9Zm9.43,4.67a1.25,1.25,0,0,1-2.49.12L48.52,50.43h3.9Zm3.34.12a1.25,1.25,0,0,1-2.49-.12V50.43h3.9Zm9.43-4.91a1.25,1.25,0,0,1-2.49.12L61.29,45.64h3.9Zm3.34.12a1.25,1.25,0,0,1-2.5-.12V45.64h3.91ZM62,27.66V26.07a3.57,3.57,0,0,1,7.14,0v1.59a3.57,3.57,0,0,1-7.14,0Zm5.54,4v1.5l-.06.09a2.13,2.13,0,0,1-3.82,0l-.06-.09v-1.5l.5.18a4.36,4.36,0,0,0,2.94,0Zm-9.53,5a2,2,0,0,1,1.43-1.89l3.54-1,.15.2a2.92,2.92,0,0,0,4.88,0l.16-.2,3.53,1a2,2,0,0,1,1.43,1.89V46a1.18,1.18,0,0,1-2.35,0V38.84a.42.42,0,1,0-.84,0v6H61.25v-6a.43.43,0,0,0-.43-.43.4.4,0,0,0-.39.34l0,.12v.54l-.56-.4a3.12,3.12,0,0,0-.64-.28l-1.15-.33Zm-8.77-4.2V30.86a3.57,3.57,0,1,1,7.13,0v1.59a3.57,3.57,0,1,1-7.13,0Zm5.53,4v1.5l-.06.09a2.13,2.13,0,0,1-3.82,0l-.06-.09v-1.5l.5.18a4.36,4.36,0,0,0,2.94,0Zm-4.56,2.11.15.2a2.92,2.92,0,0,0,4.88,0l.16-.2,3.53,1a2,2,0,0,1,1.43,1.9v9.37a1.18,1.18,0,0,1-2.35,0v-8a.41.41,0,0,0-.12-.3.44.44,0,0,0-.72.3v6.76H48.48V42.83a.43.43,0,1,0-.85,0v8a1.18,1.18,0,0,1-2.35,0V41.44a2,2,0,0,1,1.43-1.9ZM36.51,27.66V26.07a3.57,3.57,0,1,1,7.13,0v1.59a3.57,3.57,0,1,1-7.13,0Zm5.53,4v1.5l-.06.09a2.13,2.13,0,0,1-3.82,0l-.06-.09v-1.5l.5.18a4.36,4.36,0,0,0,2.94,0Zm-9.53,5a2,2,0,0,1,1.43-1.89l3.54-1,.15.2a2.92,2.92,0,0,0,4.88,0l.16-.2,3.53,1a2,2,0,0,1,1.43,1.89V38.4l-1.15.33a2.84,2.84,0,0,0-.63.28l-.23.13-.34.27,0-.66a.42.42,0,0,0-.4-.34.42.42,0,0,0-.42.43v6H35.71v-6a.43.43,0,1,0-.85,0V46a1.18,1.18,0,0,1-2.35,0Z"/><path class="cls-2" d="M71.62,56.6a.44.44,0,0,0-.22-.07A.42.42,0,0,0,71,57a.43.43,0,0,0,.28.4h0c3.25,1.34,5.11,3,5.11,4.63,0,3.65-9.45,7.56-23.52,7.56S29.32,65.63,29.32,62c0-1.63,1.86-3.29,5.11-4.62h0a.42.42,0,0,0-.15-.82.38.38,0,0,0-.21.07C30.47,58.09,28.48,60,28.48,62c0,5.26,12.39,8.41,24.36,8.41S77.21,67.24,77.21,62C77.21,60,75.21,58.09,71.62,56.6Z"/></svg>