<svg id="Calque_1" data-name="Calque 1" xmlns="http://www.w3.org/2000/svg" viewBox="0 0 105.69 91.98"><defs><style>.cls-1{fill:#032552;}.cls-2{fill:#e83d47;}</style></defs><path class="cls-1" d="M95,23.69H5v47.7h8.48l-1.87,3a1.22,1.22,0,0,0,1.06,1.92h1a2,2,0,0,0,1.59-.88l2.2-3.51.33-.53h19l.26,1a2.65,2.65,0,0,0,2.45,1.91H60.08a2.66,2.66,0,0,0,2.45-1.91l.26-1H83l.33.53,2.19,3.51a2,2,0,0,0,1.6.88h1a1.22,1.22,0,0,0,1.07-1.92l-1.87-3H95ZM14.41,74.91a1,1,0,0,1-.76.42h-1c-.27,0-.37-.19-.23-.42l2.2-3.52h2Zm73.93,0c.15.23,0,.42-.23.42h-1a1,1,0,0,1-.76-.42l-2.2-3.52h2Zm-81.87-5V25.16H93.52V69.92Z"/><path class="cls-2" d="M60.08,73.36H39.43a1.67,1.67,0,0,1-1.49-1.16l-.2-.81h24l-.2.81A1.67,1.67,0,0,1,60.08,73.36Z"/><polygon class="cls-1" points="34.91 53.29 35.12 53.17 55.15 41.61 55.36 41.48 55.11 41.06 54.9 41.18 34.88 52.74 34.66 52.86 34.91 53.29"/><polygon class="cls-1" points="44.5 57.29 44.75 57.72 44.96 57.59 64.98 46.03 65.19 45.91 64.95 45.48 64.74 45.61 44.71 57.17 44.5 57.29"/><circle class="cls-1" cx="40.41" cy="72.38" r="0.49"/></svg>