<svg id="Calque_1" data-name="Calque 1" xmlns="http://www.w3.org/2000/svg" viewBox="0 0 105.69 91.98"><defs><style>.cls-1{fill:#032552;}.cls-2{fill:#e83d47;}</style></defs><path class="cls-1" d="M59.92,40.48h-.77a.2.2,0,0,0-.19.2v.77a.2.2,0,0,0,.19.19h.77c.09,0,.18-.08.2-.23v-.73A.2.2,0,0,0,59.92,40.48Z"/><path class="cls-1" d="M46.61,48.11h.77c.08,0,.18-.07.2-.23v-.73a.2.2,0,0,0-.19-.19h-.77a.2.2,0,0,0-.19.19v.77A.2.2,0,0,0,46.61,48.11Z"/><path class="cls-2" d="M47.78,51.35h10c.09,0,.14-.1.16-.19v-.81a.16.16,0,0,0-.15-.16h-10a.16.16,0,0,0-.15.16v.85A.15.15,0,0,0,47.78,51.35Z"/><path class="cls-1" d="M60.77,48.11h.77c.08,0,.18-.07.2-.23v-.73a.2.2,0,0,0-.2-.19h-.77a.2.2,0,0,0-.19.19v.77A.2.2,0,0,0,60.77,48.11Z"/><path class="cls-1" d="M55.07,43.72H54.3a.2.2,0,0,0-.2.19v.77a.2.2,0,0,0,.2.2h.77c.08,0,.17-.07.2-.23v-.74A.2.2,0,0,0,55.07,43.72Z"/><path class="cls-1" d="M60.73,43.72H60a.2.2,0,0,0-.19.19v.77a.2.2,0,0,0,.19.2h.77c.08,0,.18-.07.2-.23v-.74A.2.2,0,0,0,60.73,43.72Z"/><path class="cls-1" d="M57.09,40.48h-.77a.2.2,0,0,0-.19.2v.77a.2.2,0,0,0,.19.19h.77a.24.24,0,0,0,.2-.23v-.73A.21.21,0,0,0,57.09,40.48Z"/><path class="cls-1" d="M54.26,40.48h-.77a.2.2,0,0,0-.2.2v.77a.2.2,0,0,0,.2.19h.77a.24.24,0,0,0,.2-.23v-.73A.2.2,0,0,0,54.26,40.48Z"/><path class="cls-1" d="M48.59,40.48h-.77a.2.2,0,0,0-.19.2v.77a.2.2,0,0,0,.19.19h.77c.09,0,.18-.08.2-.23v-.73A.2.2,0,0,0,48.59,40.48Z"/><path class="cls-1" d="M66.6,44.65v-.74a.2.2,0,0,0-.19-.19h-.77a.2.2,0,0,0-.2.19v.77a.2.2,0,0,0,.2.2h.77C66.48,44.88,66.57,44.81,66.6,44.65Z"/><path class="cls-1" d="M62.76,51.35h.77a.17.17,0,0,0,.19-.19v-.77a.2.2,0,0,0-.19-.2h-.77a.2.2,0,0,0-.2.2v.77A.2.2,0,0,0,62.76,51.35Z"/><path class="cls-1" d="M40.1,40.48h-.77a.2.2,0,0,0-.2.2v.77a.2.2,0,0,0,.2.19h.77c.08,0,.17-.08.19-.23v-.73A.2.2,0,0,0,40.1,40.48Z"/><path class="cls-1" d="M40.1,50.19h-.77a.2.2,0,0,0-.2.2v.77a.2.2,0,0,0,.2.19h.77c.08,0,.17-.08.19-.23v-.73A.2.2,0,0,0,40.1,50.19Z"/><rect class="cls-1" x="64.46" y="40.44" width="2.09" height="1.16" rx="0.11"/><path class="cls-1" d="M65.59,51.35h.77a.17.17,0,0,0,.19-.19v-.77a.2.2,0,0,0-.19-.2h-.77a.2.2,0,0,0-.2.2v.77A.2.2,0,0,0,65.59,51.35Z"/><path class="cls-1" d="M62.76,40.48H62a.2.2,0,0,0-.2.2v.77a.2.2,0,0,0,.2.19h.77c.07,0,.17-.07.19-.23v-.73A.2.2,0,0,0,62.76,40.48Z"/><path class="cls-1" d="M57.9,43.72h-.77a.2.2,0,0,0-.19.19v.77a.2.2,0,0,0,.19.2h.77c.08,0,.18-.07.2-.23v-.74A.21.21,0,0,0,57.9,43.72Z"/><path class="cls-1" d="M63.57,48.11H66.4a.15.15,0,0,0,.15-.15v-.81A.15.15,0,0,0,66.4,47H63.57a.16.16,0,0,0-.16.15V48A.16.16,0,0,0,63.57,48.11Z"/><path class="cls-1" d="M63.57,43.72H62.8a.2.2,0,0,0-.2.19v.77a.2.2,0,0,0,.2.2h.77c.07,0,.17-.07.19-.23v-.74A.2.2,0,0,0,63.57,43.72Z"/><path class="cls-1" d="M55.88,47h-.77a.2.2,0,0,0-.2.19v.77a.2.2,0,0,0,.2.19h.77c.08,0,.17-.07.19-.23v-.73A.2.2,0,0,0,55.88,47Z"/><path class="cls-1" d="M43.74,43.72H43a.2.2,0,0,0-.19.19v.77a.2.2,0,0,0,.19.2h.77c.08,0,.17-.07.2-.23v-.74A.2.2,0,0,0,43.74,43.72Z"/><path class="cls-1" d="M42.93,40.48h-.77a.2.2,0,0,0-.19.2v.77a.2.2,0,0,0,.19.19h.77a.24.24,0,0,0,.2-.23v-.73A.2.2,0,0,0,42.93,40.48Z"/><path class="cls-1" d="M41,43.76H39.21s-.08,0-.08.07v1a.08.08,0,0,0,.08.08H41c.06,0,.07,0,.07-.08v-1A.07.07,0,0,0,41,43.76Z"/><rect class="cls-1" x="39.17" y="47.04" width="2.7" height="1.08" rx="0.11"/><path class="cls-1" d="M42.16,51.35h.77a.24.24,0,0,0,.2-.23v-.73a.2.2,0,0,0-.19-.2h-.77a.2.2,0,0,0-.19.2v.77A.2.2,0,0,0,42.16,51.35Z"/><path class="cls-1" d="M69.35,37.65h-33a.56.56,0,0,0-.55.56V53.62a.56.56,0,0,0,.55.56h33a.56.56,0,0,0,.56-.56V38.21A.56.56,0,0,0,69.35,37.65Zm-.56,15.42H36.89V38.77h31.9Z"/><path class="cls-1" d="M59.92,51.35h.77a.17.17,0,0,0,.2-.19v-.77a.2.2,0,0,0-.2-.2h-.77a.2.2,0,0,0-.19.2v.77A.2.2,0,0,0,59.92,51.35Z"/><path class="cls-1" d="M45,51.35h.77a.24.24,0,0,0,.2-.23v-.73a.2.2,0,0,0-.2-.2H45a.2.2,0,0,0-.19.2v.77A.2.2,0,0,0,45,51.35Z"/><path class="cls-1" d="M46.57,43.72H45.8a.2.2,0,0,0-.19.19v.77a.2.2,0,0,0,.19.2h.77c.08,0,.18-.07.2-.23v-.74A.2.2,0,0,0,46.57,43.72Z"/><path class="cls-1" d="M49.4,43.72h-.77a.2.2,0,0,0-.19.19v.77a.2.2,0,0,0,.19.2h.77c.08,0,.18-.07.2-.23v-.74A.2.2,0,0,0,49.4,43.72Z"/><path class="cls-1" d="M50.21,47h-.77a.2.2,0,0,0-.19.19v.77a.2.2,0,0,0,.19.19h.77c.08,0,.18-.07.2-.23v-.73A.2.2,0,0,0,50.21,47Z"/><path class="cls-1" d="M52.24,43.72h-.77a.2.2,0,0,0-.2.19v.77a.2.2,0,0,0,.2.2h.77c.08,0,.17-.07.19-.23v-.74A.2.2,0,0,0,52.24,43.72Z"/><path class="cls-1" d="M58.71,48.11c.08,0,.18-.07.2-.23v-.73a.19.19,0,0,0-.19-.19h-.77a.2.2,0,0,0-.19.19v.77a.2.2,0,0,0,.19.19Z"/><path class="cls-1" d="M45.76,40.48H45a.2.2,0,0,0-.19.2v.77a.2.2,0,0,0,.19.19h.77a.24.24,0,0,0,.2-.23v-.73A.2.2,0,0,0,45.76,40.48Z"/><path class="cls-1" d="M52.28,47a.2.2,0,0,0-.2.19v.77a.2.2,0,0,0,.2.19H53c.09,0,.18-.07.2-.23v-.73A.2.2,0,0,0,53,47Z"/><path class="cls-1" d="M51.43,40.48h-.77a.2.2,0,0,0-.2.2v.77a.2.2,0,0,0,.2.19h.77c.08,0,.17-.08.19-.23v-.73A.2.2,0,0,0,51.43,40.48Z"/><path class="cls-1" d="M43.78,48.11h.77c.08,0,.17-.07.2-.23v-.73a.2.2,0,0,0-.19-.19h-.77a.2.2,0,0,0-.2.19v.77A.2.2,0,0,0,43.78,48.11Z"/></svg>