<svg id="Calque_1" data-name="Calque 1" xmlns="http://www.w3.org/2000/svg" viewBox="0 0 105.69 91.98"><defs><style>.cls-1{fill:#032552;}.cls-2{fill:#e83d47;}</style></defs><path class="cls-1" d="M69.63,32.17A2.51,2.51,0,0,0,67,31.83L44.47,41.32a2.4,2.4,0,0,0-.18,4.46L47,47.16a3.85,3.85,0,0,1,1.45,1.69l1.4,4.09a2.53,2.53,0,0,0,4.37.91l1.29-1.43a.46.46,0,0,1,.45-.06l5.31,3.45a2.78,2.78,0,0,0,1.53.47,2.59,2.59,0,0,0,.95-.18,2.71,2.71,0,0,0,1.63-1.9l5-19.44A2.51,2.51,0,0,0,69.63,32.17Zm-.25,2.34L64.39,54a1.67,1.67,0,0,1-2.61,1l-5.3-3.45a1.94,1.94,0,0,0-.3-.13L67,35.3a.51.51,0,0,0-.07-.64.5.5,0,0,0-.64,0L48.42,47.08a3.87,3.87,0,0,0-1-.8L44.75,44.9h0a1.41,1.41,0,0,1,.11-2.66l22.49-9.49a1.44,1.44,0,0,1,2,1.76Z"/><path class="cls-2" d="M53.44,53.18a1.58,1.58,0,0,1-1.5.55,1.63,1.63,0,0,1-1.18-1.11l-1.4-4.1a2.9,2.9,0,0,0-.33-.66L64.66,37,54.71,51.78Z"/></svg>