<svg id="Calque_1" data-name="Calque 1" xmlns="http://www.w3.org/2000/svg" viewBox="0 0 105.69 91.98"><defs><style>.cls-1{fill:#032552;}.cls-2{fill:#e83d47;}</style></defs><path class="cls-1" d="M57.84,49.87H44.47V40.3a3.61,3.61,0,0,0-3.62-3.43h-3a.62.62,0,0,0-.62.62l0,7.93-3.72,7.45h-2V50.49a.63.63,0,0,0-.63-.62h-9a.62.62,0,0,0-.62.62v25a.63.63,0,0,0,.62.63h9.1a.62.62,0,0,0,.53-.62V73.12l1.31,0,3.77,1.89.18.06H54.84a3.63,3.63,0,0,0,2.78-6l-.29-.33.38-.23a3.62,3.62,0,0,0,.91-5.44l-.29-.33.38-.23a3.62,3.62,0,0,0,.91-5.44l-.29-.33.38-.23a3.68,3.68,0,0,0,1.76-3.11A3.63,3.63,0,0,0,57.84,49.87Zm-27.62,25H22.47V51.12h7.75Zm27.62-19h-2a.63.63,0,0,0,0,1.25h1a2.38,2.38,0,1,1,0,4.75h-2a.63.63,0,0,0,0,1.25h1a2.38,2.38,0,1,1,0,4.75h-2a.63.63,0,0,0,0,1.25h1a2.38,2.38,0,1,1,0,4.75l-17.93,0-3.84-1.92-.15,0H31.47V54.12h2.37a.78.78,0,0,0,.22,0l.19-.11.32.21-.25-.29.09-.13,4-8a.52.52,0,0,0,.07-.27V38.12h2.37a2.38,2.38,0,0,1,2.38,2.37v10a.63.63,0,0,0,.62.63h14a2.38,2.38,0,1,1,0,4.75Z"/><path class="cls-1" d="M46.69,30.23,58.4,41.94a.65.65,0,0,0,.89,0L71,30.23A8.42,8.42,0,0,0,59.11,18.31l-.27.27-.26-.27a8.44,8.44,0,0,0-11.89,0,8.4,8.4,0,0,0,0,11.9Z"/><path class="cls-2" d="M47.57,19.22a7.18,7.18,0,0,1,10.14,0l.69.69a.62.62,0,0,0,.89,0l.68-.69A7.17,7.17,0,1,1,70.12,29.35L58.84,40.61,47.57,29.35a7.16,7.16,0,0,1,0-10.13Z"/><path class="cls-1" d="M74.84,40.87a9.63,9.63,0,1,0,9.63,9.62A9.63,9.63,0,0,0,74.84,40.87Zm0,18a8.38,8.38,0,1,1,8.38-8.38A8.39,8.39,0,0,1,74.84,58.87Z"/><path class="cls-1" d="M74.84,55.12a.63.63,0,0,0,.63-.63V51.12h3.37a.63.63,0,1,0,0-1.25H75.47V46.49a.63.63,0,0,0-1.25,0v3.38H70.84a.63.63,0,0,0,0,1.25h3.38v3.37A.63.63,0,0,0,74.84,55.12Z"/></svg>