<svg id="Calque_1" data-name="Calque 1" xmlns="http://www.w3.org/2000/svg" viewBox="0 0 105.69 91.98"><defs><style>.cls-1{fill:#032552;}.cls-2{fill:#e83d47;}</style></defs><path class="cls-1" d="M93,63.48H89.12V56.67h.31c1.92-.08,3.8-.61,3.8-6,0-4.73-1.57-13.94-4.45-13.94s-4.44,9.12-4.44,13.8c0,2.63.39,4.25,1.25,5.1a3.69,3.69,0,0,0,2.14,1l.27,0v6.84H78.56V56.67h.31c1.92-.08,3.79-.61,3.79-6,0-4.73-1.57-13.94-4.44-13.94s-4.45,9.12-4.45,13.8c0,2.63.4,4.25,1.25,5.1a3.69,3.69,0,0,0,2.14,1l.28,0v6.84H68V43.3l3.37,1.88a.57.57,0,0,0,.73-.16l0-.07a.56.56,0,0,0-.22-.74L47.2,30.42,37.2,36V33.67a1,1,0,0,0-1-1H32.68a1,1,0,0,0-1,1v5.4L22.49,44.2a.56.56,0,0,0-.24.7l0,.07a.51.51,0,0,0,.33.25.56.56,0,0,0,.42,0l3.37-1.88V63.47H17v-6.8l.31,0c1.92-.08,3.8-.61,3.8-6,0-4.73-1.57-13.94-4.45-13.94s-4.45,9.12-4.45,13.81c0,2.63.4,4.24,1.25,5.09a3.69,3.69,0,0,0,2.14,1l.28,0v6.83h-3a.57.57,0,0,0-.56.5v.08a.56.56,0,0,0,.56.54H93a.56.56,0,0,0,.55-.5V64A.55.55,0,0,0,93,63.48ZM16.45,52h-.07a.55.55,0,0,0-.54.55v2.94l-.39-.07a2.35,2.35,0,0,1-1.25-.62c-.76-.76-.92-2.81-.92-4.39,0-6.07,2-12.58,3.33-12.58,1.58,0,3.33,7.6,3.33,12.75,0,4.06-.89,4.84-2.65,4.92H17v-3A.56.56,0,0,0,16.45,52ZM66.9,63.48H46V54.59a6.72,6.72,0,1,0-13.43,0v8.89h-5V42.67l19.69-11,.16.09L66.9,42.67ZM78.07,52H78a.55.55,0,0,0-.54.55v2.94l-.38-.07a2.35,2.35,0,0,1-1.25-.62c-.76-.76-.92-2.81-.92-4.39,0-6.07,2-12.58,3.33-12.58,1.58,0,3.34,7.6,3.34,12.75,0,4.06-.9,4.84-2.66,4.92h-.34v-3A.55.55,0,0,0,78.07,52Zm10.5,0a.56.56,0,0,0-.56.55v2.94l-.39-.07a2.35,2.35,0,0,1-1.24-.62c-.76-.76-.92-2.81-.92-4.39,0-6.07,2-12.58,3.33-12.58,1.58,0,3.34,7.6,3.34,12.75,0,4.06-.9,4.84-2.66,4.92h-.34v-3A.56.56,0,0,0,88.57,52Z"/><rect class="cls-1" x="49.28" y="47.64" width="12.56" height="9.91"/><rect class="cls-2" x="50.39" y="51.39" width="10.33" height="5.05"/><rect class="cls-2" x="50.39" y="48.75" width="10.33" height="1.53"/><path class="cls-2" d="M44.87,63.48H33.67V54.59a5.6,5.6,0,1,1,11.2,0Z"/><path class="cls-2" d="M36.07,34.23v2.39l-3.28,1.84V34.23a.49.49,0,0,1,.49-.49h2.3A.49.49,0,0,1,36.07,34.23Z"/></svg>