<?xml version="1.0" encoding="utf-8"?>
<!-- Generator: Adobe Illustrator 24.1.0, SVG Export Plug-In . SVG Version: 6.00 Build 0)  -->
<svg version="1.1" id="Calque_1" xmlns="http://www.w3.org/2000/svg" xmlns:xlink="http://www.w3.org/1999/xlink" x="0px" y="0px"
	 viewBox="0 0 105.7 92" style="enable-background:new 0 0 105.7 92;" xml:space="preserve">
<style type="text/css">
	.st0{fill:#E83D47;}
	.st1{fill:#032552;}
</style>
<path class="st0" d="M72.4,39.9l0.3,0.1c1.3,0.4,2.1,1.5,2.2,2.8v4.8c0,1.3-0.9,2.5-2.2,2.8l-0.3,0.1V39.9z"/>
<path class="st0" d="M71.4,39.9v10.8h-1.6v-9.8c0-0.3,0-0.5,0-0.8v-0.3L71.4,39.9z"/>
<path class="st0" d="M33.3,50.6L33,50.5c-1.3-0.4-2.2-1.5-2.2-2.8v-4.8c0-1.3,0.9-2.5,2.2-2.8l0.3-0.1L33.3,50.6z"/>
<path class="st0" d="M35.9,40.1c0,0.2,0,0.5,0,0.8v9.8h-1.6V39.9h1.6L35.9,40.1z"/>
<path class="st0" d="M50.3,67.2h5c0.5,0,0.9,0.4,0.9,0.9v0.7c0,0.5-0.4,0.9-0.9,0.9h-5c-0.5,0-0.9-0.4-0.9-0.9v-0.7
	C49.4,67.6,49.8,67.2,50.3,67.2z"/>
<path class="st1" d="M71.9,38.9h-2.2v-0.2c-1.3-9.3-9.8-15.8-19.1-14.6c-7.6,1-13.5,7-14.6,14.6v0.2h-2.3c-2.2,0-3.9,1.8-3.9,3.9
	v4.8c0,2.2,1.8,3.9,3.9,3.9h2.1v0.9c0,2.7,0.6,5.3,1.8,7.7c0.1,0.2,0.4,0.3,0.7,0.2c0.2-0.1,0.3-0.4,0.2-0.7
	c-1.2-2.2-1.7-4.7-1.7-7.2V40.9c0-1.9,0.3-3.9,1-5.7l0.1-0.3l0.3,0.2c2.8,2,10.7,5,16.2,5c1,0,2-0.1,3-0.4c1.5-0.4,2.7-1.7,2.9-3.3
	v-0.3l0.3,0.2c2.3,1.3,5,1.9,7.7,1.6h0.2V38c0.2,1,0.3,1.9,0.3,2.9v11.6c0,7-4.5,13.2-11.3,15.3l-0.2,0.1l-0.1-0.2
	c-0.2-0.8-1-1.4-1.8-1.4h-5c-1.1,0-1.9,0.9-1.9,1.9v0.7c0,1.1,0.9,1.9,1.9,1.9h5c1,0,1.8-0.7,1.9-1.7v-0.2h0.2
	c7.3-2.1,12.4-8.8,12.4-16.4v-0.9h2.1c2.2,0,3.9-1.8,3.9-3.9l0,0v-4.8C75.8,40.7,74.1,38.9,71.9,38.9C71.9,38.9,71.9,38.9,71.9,38.9
	z M33.3,50.6L33,50.5c-1.3-0.4-2.2-1.5-2.2-2.8v-4.8c0-1.3,0.9-2.5,2.2-2.8l0.3-0.1L33.3,50.6z M35.9,40.1c0,0.2,0,0.5,0,0.8v9.8
	h-1.6V39.9h1.6L35.9,40.1z M68,36.9c-2.8,0.2-5.6-0.5-7.9-2c-0.2-0.1-0.3-0.1-0.5,0c-0.2,0.1-0.3,0.3-0.2,0.4
	c0.2,1.6-0.7,3.1-2.3,3.5c-0.9,0.3-1.7,0.4-2.6,0.4c-5.7,0-14.3-3.7-15.9-5L38.4,34l0.1-0.2c2.7-5.5,8.2-9,14.4-9
	c7.2,0,13.5,4.8,15.4,11.7l0.1,0.3L68,36.9z M56.3,68.9c0,0.5-0.4,0.9-0.9,0.9l0,0h-5c-0.5,0-0.9-0.4-0.9-0.9v-0.7
	c0-0.5,0.4-0.9,0.9-0.9l0,0h5c0.5,0,0.9,0.4,0.9,0.9V68.9z M71.4,50.6h-1.6v-9.8c0-0.3,0-0.5,0-0.8v-0.3h1.6L71.4,50.6z M74.9,47.6
	c0,1.3-0.9,2.5-2.2,2.8l-0.3,0.1V39.9l0.3,0.1c1.3,0.4,2.1,1.5,2.2,2.8V47.6z"/>
<path class="st1" d="M72.1,37.1c-1.2-9-9.5-15.9-19.3-15.9s-18,6.8-19.3,15.9c0,0.3,0.2,0.5,0.4,0.5c0.3,0,0.5-0.1,0.5-0.4
	c0,0,0,0,0,0c1.2-8.6,9-15,18.3-15s17.1,6.5,18.3,15c0,0.3,0.3,0.5,0.6,0.4c0.1,0,0.2-0.1,0.3-0.2C72.1,37.4,72.1,37.2,72.1,37.1z"
	/>
<path class="st1" d="M48.2,45.2c0-1.7-1.3-3-3-3s-3,1.3-3,3c0,0.3,0.2,0.5,0.5,0.5s0.5-0.2,0.5-0.5c0-1.1,0.9-2,2-2s2,0.9,2,2
	c0,0.3,0.2,0.5,0.5,0.5S48.2,45.5,48.2,45.2z"/>
<path class="st1" d="M63.8,45.2c0-1.7-1.3-3-3-3s-3,1.3-3,3c0,0.3,0.2,0.5,0.5,0.5s0.5-0.2,0.5-0.5c0-1.1,0.9-2,2-2s2,0.9,2,2
	c0,0.3,0.2,0.5,0.5,0.5S63.8,45.5,63.8,45.2z"/>
<path class="st1" d="M51.5,42.7v11.5c0,0.3,0.2,0.5,0.5,0.5h2.2c0.3,0,0.5-0.2,0.5-0.5s-0.2-0.5-0.5-0.5h-1.7v-11
	c0-0.3-0.2-0.5-0.5-0.5S51.5,42.5,51.5,42.7L51.5,42.7L51.5,42.7z"/>
<path class="st1" d="M45,56.1c0,0.1,0,0.3,0,0.4l0,0c2.5,4.3,8,5.8,12.3,3.4c1.4-0.8,2.6-2,3.4-3.4c0.1-0.1,0.1-0.2,0-0.4
	c0-0.1-0.1-0.2-0.2-0.3c-0.1-0.1-0.3-0.1-0.4,0c-0.1,0-0.2,0.1-0.3,0.2c-2.2,3.9-7.1,5.2-11,3c-1.3-0.7-2.3-1.8-3-3
	c-0.1-0.1-0.2-0.2-0.4-0.2c-0.1,0-0.2,0-0.2,0.1C45.1,55.9,45,56,45,56.1z"/>
</svg>
