<svg id="Calque_1" data-name="Calque 1" xmlns="http://www.w3.org/2000/svg" viewBox="0 0 105.69 91.98"><defs><style>.cls-1{fill:#032552;}</style></defs><path class="cls-1" d="M52.78,55.71h.16a1.48,1.48,0,0,0,1.34-1.53,1.53,1.53,0,0,0-1.5-1.6,1.58,1.58,0,0,0-1.12,2.68A1.54,1.54,0,0,0,52.78,55.71Z"/><path class="cls-1" d="M55.88,34.05h0a9.28,9.28,0,0,0-4.63-.31A6,6,0,0,0,46.13,39l3.07.36,0-.13a3.67,3.67,0,0,1,3.22-3.12A3.58,3.58,0,0,1,55.6,37a2.55,2.55,0,0,1,.21,3.63,1.83,1.83,0,0,1-.36.38l-.12.1c-.21.21-.35.34-.49.46l-.38.34a19.94,19.94,0,0,0-1.73,1.54,3.19,3.19,0,0,0-1.13,1.8,16.91,16.91,0,0,0-.33,3.95h2.94V47.93c.07-1.9.27-2.29,1.71-3.52l.53-.48a14.16,14.16,0,0,0,2.27-2.24,4.62,4.62,0,0,0,.78-4.25A5.58,5.58,0,0,0,55.88,34.05Z"/><path class="cls-1" d="M38.09,65.52a15.51,15.51,0,0,0,4.39-.58l1.46-.38a17.2,17.2,0,0,0,1.94-.79l.14-.05a.55.55,0,0,1,.28-.07l.17,0a19,19,0,0,0,6.37,1,20.22,20.22,0,1,0-14.66-6.25l.21.21L38.3,59a3.19,3.19,0,0,1-.56.89l-2.25,3a1.4,1.4,0,0,0-.21,1.58c.31.68,1.19,1,2.61,1Zm1.43-4.7a3.86,3.86,0,0,0,.69-1.22,2.47,2.47,0,0,0-.11-1.92l-.23-.25a18.43,18.43,0,1,1,13,5.29,17.71,17.71,0,0,1-6-1l-.16,0H46.3a3.41,3.41,0,0,0-1.21.33l-.52.21a15.51,15.51,0,0,1-1.53.57l-1,.33a13.79,13.79,0,0,1-3.56.49h-1Z"/></svg>