<svg id="Calque_1" data-name="Calque 1" xmlns="http://www.w3.org/2000/svg" viewBox="0 0 105.69 91.98"><defs><style>.cls-1{fill:#032552;}.cls-2{fill:#e83d47;}</style></defs><path class="cls-1" d="M62.78,65.39a31.09,31.09,0,0,0-8.42-1.29h-1A31.1,31.1,0,0,0,45,65.39a.47.47,0,0,0-.33.46v4.9a.47.47,0,0,0,.47.47H62.64a.47.47,0,0,0,.48-.47v-4.9A.48.48,0,0,0,62.78,65.39Zm-.61,4.88H45.6V66.2A30.5,30.5,0,0,1,53.85,65h.06a30.58,30.58,0,0,1,8.26,1.17Z"/><path class="cls-2" d="M42.27,48.6v.79c0,3.93-3.12,6.79-7.41,6.79s-7.41-2.86-7.41-6.79V48.6Z"/><path class="cls-2" d="M80.3,49.41c0,3.93-3.12,6.79-7.41,6.79s-7.41-2.86-7.41-6.79v-.78H80.3Z"/><path class="cls-1" d="M80.77,47.68H79L73.34,29s0,0,0,0a.5.5,0,0,0-.33-.3,82.68,82.68,0,0,0-13.83-2,5.24,5.24,0,0,0-10.46,0,84.36,84.36,0,0,0-14,2,.47.47,0,0,0-.33.31s0,0,0,0L28.76,47.65H27a.48.48,0,0,0-.48.48v1.26c0,4.48,3.52,7.74,8.36,7.74s8.36-3.26,8.36-7.74V48.13a.48.48,0,0,0-.47-.48H41L35.47,29.46a83.29,83.29,0,0,1,13.24-1.89,5.25,5.25,0,0,0,4.7,4.7V62.76h0a.47.47,0,0,0,.94,0h0V32.28a5.24,5.24,0,0,0,4.8-4.7,81.51,81.51,0,0,1,13.12,1.9l-5.49,18.2H65a.47.47,0,0,0-.47.47v1.26c0,4.48,3.51,7.74,8.36,7.74s8.36-3.26,8.36-7.74V48.15A.47.47,0,0,0,80.77,47.68Zm-38.5.92v.79c0,3.93-3.12,6.79-7.41,6.79s-7.41-2.86-7.41-6.79V48.6Zm-2.31-1H29.76l5.1-16.9Zm14-16.27a4.33,4.33,0,1,1,4.33-4.33A4.34,4.34,0,0,1,53.94,31.38Zm19-.61L78,47.67H67.78ZM80.3,49.41c0,3.93-3.12,6.79-7.41,6.79s-7.41-2.86-7.41-6.79v-.78H80.3Z"/></svg>