<svg id="Calque_1" data-name="Calque 1" xmlns="http://www.w3.org/2000/svg" viewBox="0 0 105.69 91.98"><defs><style>.cls-1{fill:#032552;}.cls-2{fill:#e83d47;}</style></defs><path class="cls-1" d="M37.45,52.18a6.33,6.33,0,1,0,6.33,6.33A6.33,6.33,0,0,0,37.45,52.18Zm0,11.9A5.57,5.57,0,1,1,43,58.51,5.57,5.57,0,0,1,37.46,64.08Z"/><path class="cls-1" d="M37.45,55.37a3.14,3.14,0,1,0,3.14,3.14A3.15,3.15,0,0,0,37.45,55.37Zm0,5.52a2.38,2.38,0,1,1,2.38-2.38A2.38,2.38,0,0,1,37.46,60.89Z"/><path class="cls-2" d="M37.46,52.94A5.57,5.57,0,1,0,43,58.51,5.57,5.57,0,0,0,37.46,52.94Zm0,8.71a3.14,3.14,0,1,1,3.14-3.14A3.15,3.15,0,0,1,37.45,61.65Z"/><path class="cls-1" d="M72,52.18a6.33,6.33,0,1,0,6.33,6.33A6.34,6.34,0,0,0,72,52.18Zm0,11.9a5.57,5.57,0,1,1,5.57-5.57A5.57,5.57,0,0,1,72,64.08Z"/><path class="cls-1" d="M72,55.37a3.14,3.14,0,1,0,3.14,3.14A3.15,3.15,0,0,0,72,55.37Zm0,5.52a2.38,2.38,0,1,1,2.38-2.38A2.38,2.38,0,0,1,72,60.89Z"/><path class="cls-2" d="M72,52.94a5.57,5.57,0,1,0,5.57,5.57A5.57,5.57,0,0,0,72,52.94Zm0,8.71a3.14,3.14,0,1,1,3.14-3.14A3.15,3.15,0,0,1,72,61.65Z"/><path class="cls-1" d="M82.3,44.31l-4.11-8.23a5.11,5.11,0,0,0-4.6-2.84H62.72V27.73A2.77,2.77,0,0,0,60,25H25.62a2.77,2.77,0,0,0-2.78,2.77V56.14a2.78,2.78,0,0,0,2.78,2.78H28a.41.41,0,0,0,.41-.41A.41.41,0,0,0,28,58.1H25.62a2,2,0,0,1-2-2V43.53H56.39a.41.41,0,0,0,0-.82H23.65v-15a2,2,0,0,1,2-2H60a2,2,0,0,1,2,2V38H29.17a.41.41,0,1,0,0,.81H61.91V56.14a2,2,0,0,1-2,2H47.21a.41.41,0,0,0-.41.41.42.42,0,0,0,.41.41H60a2.78,2.78,0,0,0,2.77-2.78V45.9H82V56.14a2,2,0,0,1-2,2H78.22v.82h1.85a2.79,2.79,0,0,0,2.78-2.78V46.61A5.09,5.09,0,0,0,82.3,44.31Zm-19.58.77v-11H73.59a4.3,4.3,0,0,1,3.87,2.39l4.32,8.63Z"/></svg>