<svg id="Calque_1" data-name="Calque 1" xmlns="http://www.w3.org/2000/svg" viewBox="0 0 105.69 91.98"><defs><style>.cls-1{fill:#032552;}.cls-2{fill:#e83d47;}</style></defs><path class="cls-1" d="M55.14,59.51H55a5.53,5.53,0,0,0-3.69,1.4,5.65,5.65,0,0,0-2,3.93,5.39,5.39,0,0,0,.89,3.48,5.64,5.64,0,0,0,3.61,2.54,5.75,5.75,0,0,0,2.86-11.13l-.35-.11L57.9,52a.54.54,0,0,0-.4-.42h0A.48.48,0,0,0,57,52l-1.51,7.55Zm4.1,3.15a5.31,5.31,0,0,1,.62,3.58v0a4.93,4.93,0,0,1-2.13,3,4.83,4.83,0,1,1,1.52-6.62Z"/><path class="cls-1" d="M38.94,45.39l6.61-.11a.49.49,0,0,0,.45-.45.48.48,0,0,0-.45-.45l-6.43.11v-.41a5.72,5.72,0,0,0-5.34-5.7l-.47,0a5.45,5.45,0,0,0-3,.91,5.76,5.76,0,0,0,1.78,10.44,6.1,6.1,0,0,0,1.27.14,5.7,5.7,0,0,0,5.5-4.17ZM38,45.13a4.87,4.87,0,0,1-4.7,3.78,4.88,4.88,0,0,1-1.07-.12,4.78,4.78,0,0,1-3-2.18,4.93,4.93,0,0,1-.66-3.51,4.83,4.83,0,0,1,4.71-3.82,6.77,6.77,0,0,1,1,.11,4.85,4.85,0,0,1,3.06,2.08A4.75,4.75,0,0,1,38,45.13Z"/><path class="cls-1" d="M36.47,24.47a4.22,4.22,0,0,0,.6,3.28,4.27,4.27,0,0,0,3.72,2.05A4.38,4.38,0,0,0,43,29.19l.28-.17,6,6.34c.21.21.44.11.66,0l.05,0a.43.43,0,0,0,.08-.27.42.42,0,0,0-.12-.3l-6-6.31.22-.28a4.39,4.39,0,1,0-7.72-3.68Z"/><path class="cls-1" d="M75.9,50.5h0a4.35,4.35,0,0,0-3.28.61,2.69,2.69,0,0,0-.48.37l-.27.25L69,49.22a.47.47,0,0,0-.33-.14.42.42,0,0,0-.3.12c-.18.18-.16.46.05.73l2.8,2.52-.18.28A3.68,3.68,0,0,0,70.57,54a4.49,4.49,0,0,0,3.37,5.27,3.82,3.82,0,0,0,.9.1A4.48,4.48,0,0,0,75.9,50.5Z"/><path class="cls-1" d="M58,24.19c-3.06,0-5.56,2.95-5.56,6.56s2.5,6.56,5.56,6.56,5.55-2.94,5.55-6.56S61,24.19,58,24.19Zm0,12.23c-2.57,0-4.66-2.54-4.66-5.67s2.09-5.66,4.66-5.66,4.65,2.54,4.65,5.66S60.51,36.42,58,36.42Z"/><path class="cls-1" d="M55.2,38.83a.39.39,0,0,0-.25-.2h-.09a.44.44,0,0,0-.27.09,14.22,14.22,0,0,1-3.27,1.73,3.06,3.06,0,0,0-2.57,2.23,20.29,20.29,0,0,0-.16,3.75c.16.59,1.12,1.27,2.7,1.84a27.66,27.66,0,0,0,6.8,1.17,24.25,24.25,0,0,0,6.6-1.13c1.56-.55,2.57-1.29,2.68-1.95a20.93,20.93,0,0,0-.17-3.68,3,3,0,0,0-2.5-2.21h0a14.3,14.3,0,0,1-3.34-1.77c-.21-.1-.41,0-.59.21a.44.44,0,0,0,.19.59l.13.08a13.42,13.42,0,0,0,3.43,1.74,2.1,2.1,0,0,1,1.83,1.44A16.75,16.75,0,0,1,66.48,46v.14l-.1.11a5.46,5.46,0,0,1-2,1.14,21.85,21.85,0,0,1-6.27,1.07,27.43,27.43,0,0,1-6.46-1.06,5.58,5.58,0,0,1-2-1.1l-.11-.11V46a17.35,17.35,0,0,1,.18-3.22c.19-1.09,1.48-1.41,1.87-1.48a14.43,14.43,0,0,0,3.39-1.73l.14-.1a.38.38,0,0,0,.24-.26.41.41,0,0,0,0-.3Z"/><path class="cls-1" d="M75,28.09a3,3,0,0,0,1.45.36h.25A3.14,3.14,0,0,0,78.42,23a2.93,2.93,0,0,0-2-.74h-.23a3.14,3.14,0,0,0-2.86,3.31,3.09,3.09,0,0,0,.51,1.51l.2.3L65.27,35a.49.49,0,0,0-.13.29.38.38,0,0,0,.1.31.48.48,0,0,0,.39.11.42.42,0,0,0,.26-.09L74.7,28ZM74.1,25.2a2.17,2.17,0,0,1,2.06-2.07h.22a2.18,2.18,0,0,1,1.54.7,2.24,2.24,0,0,1,.55,1.6A2.14,2.14,0,0,1,77.76,27a2.21,2.21,0,0,1-1.47.55h-.12A2.14,2.14,0,0,1,74.1,25.2Z"/><path class="cls-1" d="M49.41,50.72a.35.35,0,0,0-.1-.28h0a.54.54,0,0,0-.37-.16.21.21,0,0,0-.21.07L31.59,64l-.26-.25a3,3,0,0,0-2-.76h-.24A3.21,3.21,0,0,0,26.93,64a3,3,0,0,0-.72,2.24,3,3,0,0,0,3.08,2.86h.25a3.12,3.12,0,0,0,2.83-3.28,2.29,2.29,0,0,0-.15-.82l-.11-.28L49.29,51A.52.52,0,0,0,49.41,50.72Z"/><circle class="cls-2" cx="40.78" cy="25.4" r="3.65"/><circle class="cls-2" cx="74.94" cy="54.87" r="3.71"/><circle class="cls-2" cx="29.29" cy="66.02" r="2.35"/></svg>