<svg id="Calque_1" data-name="Calque 1" xmlns="http://www.w3.org/2000/svg" viewBox="0 0 105.69 91.98"><defs><style>.cls-1{fill:#032552;}.cls-2{fill:#e83d47;}</style></defs><path class="cls-1" d="M39.32,53.34l6.37-3.72a.56.56,0,0,0,0-1l-6.38-3.72a.54.54,0,0,0-.28-.08.57.57,0,0,0-.28.08.58.58,0,0,0-.28.49v7.43a.57.57,0,0,0,.85.49Z"/><polygon class="cls-2" points="39.59 46.4 44.29 49.13 39.59 51.88 39.59 46.4"/><path class="cls-1" d="M77.84,50.73V32.67a.56.56,0,0,0-.56-.56H71L68.85,24a.57.57,0,0,0-.94-.25L59.7,32.11h-10a.57.57,0,0,0-.57.56v7.09H28.41a.56.56,0,0,0-.56.56V58.39a.56.56,0,0,0,.56.56h10l8.2,9.15a.57.57,0,0,0,1-.24L49.75,59H56a.56.56,0,0,0,.56-.56v-7.1H77.28A.56.56,0,0,0,77.84,50.73ZM55.47,57.82H49.31a.57.57,0,0,0-.55.43l-2,8.3L39.11,58a.57.57,0,0,0-.42-.19H29V40.89h26.5Zm21.25-7.65H56.59V40.32a.56.56,0,0,0-.56-.56H50.22V33.23h9.72a.56.56,0,0,0,.4-.17L68,25.27l2,7.54a.57.57,0,0,0,.55.42h6.16Z"/><path class="cls-1" d="M73,38a.56.56,0,0,0,0-1.12H60.28a.56.56,0,1,0,0,1.12Z"/><path class="cls-1" d="M73,42.23a.56.56,0,0,0,.56-.56A.57.57,0,0,0,73,41.1H60.28a.57.57,0,0,0-.56.57.56.56,0,0,0,.56.56Z"/><path class="cls-1" d="M73,46.48a.56.56,0,0,0,.56-.56.57.57,0,0,0-.56-.57H60.28a.57.57,0,0,0-.56.57.56.56,0,0,0,.56.56Z"/></svg>