<svg id="Calque_1" data-name="Calque 1" xmlns="http://www.w3.org/2000/svg" viewBox="0 0 105.69 91.98"><defs><style>.cls-1{fill:#032552;}.cls-2{fill:#e83d47;}</style></defs><path class="cls-1" d="M70.16,48.27a2.74,2.74,0,0,0-1.42-.85l-.44-.1,1.58-1.58a2.86,2.86,0,0,0,.19-3.93A2.72,2.72,0,0,0,68.65,41l-.44-.11.58-.57A2.87,2.87,0,0,0,69,36.35a2.81,2.81,0,0,0-1.92-.92,2.77,2.77,0,0,0-2,.71l-.12.11L63.17,38l-.1-.43a2.72,2.72,0,0,0-.74-1.32l-.2-.18,0-.15a2.77,2.77,0,0,0-4.51-2.85l-.1.1-1.76,1.76-.11-.43A2.79,2.79,0,0,0,53,32.36h0a2.79,2.79,0,0,0-2,.82c-.8.81-1.68,1.69-2.86,2.86l-3,3-.06-.51A3.48,3.48,0,0,0,44,36.38a2,2,0,0,0-1.34-.52,2,2,0,0,0-1.43.59L36,41.68a12.17,12.17,0,0,0-.63,16.85,11.86,11.86,0,0,0,8.13,3.91h.09l.06,0A12,12,0,0,0,60.15,62L70,52.2A2.86,2.86,0,0,0,70.16,48.27Zm-.86,3.26-9.82,9.82a11.07,11.07,0,0,1-12.82,2.08A10.94,10.94,0,0,1,43.41,61a10.58,10.58,0,0,1-2.2-3.67,11.36,11.36,0,0,1,.66-8.94A11.87,11.87,0,0,1,44,45.42l5.22-5.23a1.36,1.36,0,0,1,.34-.23,1,1,0,0,1,1.11.17A2.71,2.71,0,0,1,51.51,42a2.19,2.19,0,0,1,0,.51,2.56,2.56,0,0,1-.69,1.37L45.85,48.8a.45.45,0,0,0-.15.34.46.46,0,0,0,.13.33.47.47,0,0,0,.67,0L59.06,36.92l.08-.07.17-.14.08,0a.89.89,0,0,1,.23-.13l.07,0,.26-.08H60a1.81,1.81,0,0,1,1,.1l.06,0a1.75,1.75,0,0,1,.55.38,1.83,1.83,0,0,1,0,2.6l-8.18,8.18a.47.47,0,0,0-.17.34.45.45,0,0,0,.12.34.49.49,0,0,0,.32.16.55.55,0,0,0,.35-.12L65.6,36.92A1.81,1.81,0,0,1,67,36.38a1.86,1.86,0,0,1,1.32.61,1.94,1.94,0,0,1-.17,2.63L56.75,51a.48.48,0,0,0,0,.67.47.47,0,0,0,.67,0l9.28-9.27a1.86,1.86,0,0,1,1.3-.55h0a1.82,1.82,0,0,1,1.3.54l.08.08a2,2,0,0,1-.17,2.63L60,54.26a.47.47,0,1,0,.65.68l6.11-6.11a1.74,1.74,0,0,1,1.35-.53,1.81,1.81,0,0,1,1.32.61A1.93,1.93,0,0,1,69.3,51.53Z"/><polygon class="cls-1" points="59.46 36.91 59.46 36.91 59.46 36.91 59.46 36.91"/><polygon class="cls-1" points="59.72 36.77 59.72 36.77 59.72 36.77 59.72 36.77"/><polygon class="cls-1" points="59.24 37.09 59.24 37.09 59.24 37.09 59.24 37.09"/><path class="cls-2" d="M58.24,33.85a1.85,1.85,0,0,1,2.61,0l.07.07a1.81,1.81,0,0,1,.43,1.39l0,.27-.45-.09a2.6,2.6,0,0,0-1,0,2.77,2.77,0,0,0-1,.38l-.08.06a3.3,3.3,0,0,0-.35.28l-2.14,2.14-3.43,3.43-.36.36-.06-.51A3.45,3.45,0,0,0,52,40.34l-.09-.17Z"/><path class="cls-2" d="M41.84,61.27a11.08,11.08,0,0,1-2.55-.91h0A10.86,10.86,0,0,1,36,57.89a11.24,11.24,0,0,1,.61-15.55l5.22-5.22a1.12,1.12,0,0,1,.77-.32h0a1,1,0,0,1,.67.26,2.62,2.62,0,0,1,.12,3.7l-.06.07-4.91,4.9a.48.48,0,0,0,.66.69L48,37.56l3.7-3.71a1.82,1.82,0,0,1,1.3-.54h0a1.84,1.84,0,0,1,1.3,3.14l-3,3-.17-.12a2,2,0,0,0-2.59.22l-5.22,5.22a11.85,11.85,0,0,0-.82.9l-.1.13c-.24.3-.43.56-.6.81a1,1,0,0,0-.11.17l-.12.18c-.15.24-.27.43-.38.63s-.11.21-.16.31l-.14.28-.21.42c0,.12-.09.23-.14.35l-.06.16-.2.54c-.06.18-.11.35-.16.52l0,.13c0,.15-.08.28-.11.43s-.08.34-.11.5l-.26,0h0l.24,0-.09.51-.06.52v.06c0,.17,0,.35,0,.52s0,.39,0,.58,0,.35,0,.53a5.78,5.78,0,0,0,0,.58c0,.17,0,.35,0,.52l.09.57a3.4,3.4,0,0,0,.07.34l0,.2a4.56,4.56,0,0,0,.13.53c0,.18.1.36.16.54s.11.35.17.51.15.37.23.55l.21.48.29.55,0,.07.21.36c.12.19.24.38.37.56l.08.11c.06.09.12.19.19.28l.46.61Z"/><path class="cls-1" d="M73.61,24.2a.47.47,0,0,0-.32-.12h0a.46.46,0,0,0-.33.15l-4.37,5.1a.46.46,0,0,0,.06.66.47.47,0,0,0,.66,0l4.34-5.06A.49.49,0,0,0,73.61,24.2Z"/><path class="cls-1" d="M73.7,30.87a.49.49,0,0,0-.27-.24.39.39,0,0,0-.15,0,.42.42,0,0,0-.22.05L70.17,32.1a.51.51,0,0,0-.24.28.45.45,0,0,0,0,.36.47.47,0,0,0,.63.21l2.9-1.45a.48.48,0,0,0,.22-.62Z"/><path class="cls-1" d="M66.48,29.09l1.44-3.62a.48.48,0,0,0-.26-.62.47.47,0,0,0-.61.27L65.6,28.73a.48.48,0,0,0,.26.62h0A.5.5,0,0,0,66.48,29.09Z"/></svg>