<svg id="Calque_1" data-name="Calque 1" xmlns="http://www.w3.org/2000/svg" viewBox="0 0 105.69 91.98"><defs><style>.cls-1{fill:#032552;}.cls-2{fill:#e83d47;}</style></defs><path class="cls-1" d="M75.4,73.33v-.57c0-5.89-3.67-11.49-9.8-15l0,0a.6.6,0,1,0-.6,1c5.48,3.1,8.93,8,9.25,13.18l0,.26H34.05l-.19,0a.58.58,0,0,0-.51.26.6.6,0,0,0,0,.68.63.63,0,0,0,.64.24Z"/><path class="cls-1" d="M69.64,30.51A1.9,1.9,0,0,0,68.29,30H66.41l0-.18a15.47,15.47,0,0,0-11.18-10.7L54.66,19a11.36,11.36,0,0,0-1.19-.19A15.34,15.34,0,0,0,36.13,34a15.56,15.56,0,0,0,.35,3.18,1.28,1.28,0,0,0,.07.36l.05.15a15,15,0,0,0,2,4.58l0,.07a.6.6,0,0,0,.53.44.63.63,0,0,0,.6-.36.6.6,0,0,0-.15-.68l0-.05a14.16,14.16,0,0,1-1.62-3.51l-.11-.37.38,0a14.68,14.68,0,0,0,1.87.12h0A15.43,15.43,0,0,0,52.9,31.14l.15-.23.22.18a15.36,15.36,0,0,0,9.82,3.55h0a14.71,14.71,0,0,0,2.2-.16l.29,0V36.3a13.21,13.21,0,0,1-.54,2.23l0,.09-.07,0c-1.87,1.16-6.73,3.85-11.55,3.85a.63.63,0,0,0-.7.24.6.6,0,0,0,.64.92,23.09,23.09,0,0,0,10.23-2.89l.79-.44-.45.78A14.26,14.26,0,0,1,41.6,44.27a.57.57,0,0,0-.41-.16.61.61,0,0,0-.41.16.6.6,0,0,0,0,.82,15.4,15.4,0,0,0,25.15-5.66.64.64,0,0,1,0-.1l0-.21h2.26a1.88,1.88,0,0,0,1.88-1.67.6.6,0,0,0,0-.24V31.86A1.9,1.9,0,0,0,69.64,30.51ZM52.4,29.68a14.32,14.32,0,0,1-12.35,7.16,14.58,14.58,0,0,1-2.37-.2l-.2,0V36.4a1,1,0,0,0,0-.24l0-.21a3,3,0,0,1,0-.44c0-.14,0-.26,0-.38a2.16,2.16,0,0,1,0-.35,4.17,4.17,0,0,1,0-.5V34A14.19,14.19,0,0,1,51.51,19.8h.66a3.51,3.51,0,0,1,.91.08l.55.07h.42v.25a2.48,2.48,0,0,0,0,.27,2.93,2.93,0,0,1,.05.29c0,.06,0,.11,0,.17a.9.9,0,0,0,0,.25l0,.08v.25a3.53,3.53,0,0,1,0,.46v.58A14.2,14.2,0,0,1,52.4,29.68Zm13,3.6a14.5,14.5,0,0,1-2.28.18h0A14.18,14.18,0,0,1,53.77,30l-.18-.16.17-.26c.08-.15.16-.3.22-.44a4.83,4.83,0,0,0,.23-.52,3,3,0,0,0,.12-.29c.09-.21.16-.41.23-.61a2.66,2.66,0,0,0,.1-.38,4.6,4.6,0,0,0,.14-.47c.05-.16.09-.29.12-.42s.1-.41.14-.61l.08-.4c0-.27.11-.56.14-.83s.07-.67.1-1,0-.43,0-.65,0-.23,0-.35a8.1,8.1,0,0,0-.05-1.09,4.22,4.22,0,0,1,0-.43,1.05,1.05,0,0,0,0-.31v-.1l0-.39,1.39.49c.29.11.57.23.86.36a13.22,13.22,0,0,1,1.48.81l.26.15.8.53c.26.19.5.4.74.61s.42.36.62.56l.1.1c.23.24.47.48.67.72l.14.16a4.47,4.47,0,0,1,.29.35c.14.17.33.42.49.65a14.11,14.11,0,0,1,1.73,3.14c.06.15.12.29.17.44a14.66,14.66,0,0,1,.62,2.45v1.44Z"/><path class="cls-2" d="M68.27,38H66.72V31.1h1.55a.76.76,0,0,1,.76.76v5a.57.57,0,0,0,0,.29A.76.76,0,0,1,68.27,38Z"/><path class="cls-1" d="M27.63,73.33h3.3a.61.61,0,0,0-.06-1.16H28.79l0-.26c.38-6.42,5.59-12.3,13.27-15a23.31,23.31,0,0,1,2.57-.78,30,30,0,0,1,13.6,0c.9.22,1.81.49,2.68.79a.59.59,0,0,0,.8-.66.58.58,0,0,0-.38-.46,27.3,27.3,0,0,0-2.8-.84,31,31,0,0,0-14.14,0l-.27.08c-.83.24-1.69.49-2.44.76-8.55,3-14.07,9.63-14.07,16.91Z"/></svg>