<svg id="Calque_1" data-name="Calque 1" xmlns="http://www.w3.org/2000/svg" viewBox="0 0 105.69 91.98"><defs><style>.cls-1{fill:#032552;}.cls-2{fill:#e83d47;}</style></defs><path class="cls-1" d="M74.21,43.45c-1.89-3.78-4.85-6.46-8.12-7.35A7.66,7.66,0,0,0,60,37l-.12,0a19.68,19.68,0,0,1-4.77,1l-.62.06V34.36c0-2.32,1-3.71,2.63-3.71,2.4,0,3.56-1.25,3.56-3.82a.47.47,0,1,0-.93,0c0,2.05-.77,2.88-2.63,2.88-2.2,0-3.57,1.79-3.57,4.65v3.73H53a19.59,19.59,0,0,1-6.65-1.33,7.31,7.31,0,0,0-4-1.22,7.78,7.78,0,0,0-2.16.31c-3.32.89-6.33,3.62-8.27,7.5C28.56,50,29.59,57.83,34.18,60.9a7.44,7.44,0,0,0,6.21,1c3.18-.84,6.16-3.45,8.17-7.16l.09-.18.18-.07a12,12,0,0,1,8.84-.12l.2.08.09.19c1.93,3.6,4.85,6.16,8,7a7.19,7.19,0,0,0,6-1C76.46,57.68,77.44,50,74.21,43.45ZM66.1,60.67c-3-.76-5.69-3.2-7.48-6.69a1.17,1.17,0,0,0-.55-.46l-.12,0a12.83,12.83,0,0,0-9.81.17,1.72,1.72,0,0,0-.53.52C45.79,57.68,42.93,60.24,40,61a7.44,7.44,0,0,1-1.84.24,6.23,6.23,0,0,1-3.57-1.09c-4.19-2.78-5.07-10.12-2-16.36,1.76-3.57,4.64-6.19,7.69-7a7.84,7.84,0,0,1,1.91-.27,6.19,6.19,0,0,1,3.57,1.08l.14.06a20.8,20.8,0,0,0,14.28.28l.16,0a.3.3,0,0,1,.13-.06A6.6,6.6,0,0,1,65.87,37c2.93.76,5.75,3.32,7.54,6.85,3,6.11,2.13,13.29-2,16A6.42,6.42,0,0,1,66.1,60.67Z"/><path class="cls-2" d="M64.9,50.62a3.15,3.15,0,1,1,3.15-3.14A3.11,3.11,0,0,1,64.9,50.62Z"/><path class="cls-1" d="M64.9,43.4A4.08,4.08,0,1,0,69,47.48,4.08,4.08,0,0,0,64.9,43.4Zm0,7.22a3.15,3.15,0,1,1,3.15-3.14A3.11,3.11,0,0,1,64.9,50.62Z"/><path class="cls-1" d="M41.1,50.68V48.05h2.63a.47.47,0,1,0,0-.94H41.1V44.48a.47.47,0,0,0-.93,0v2.63H37.54a.47.47,0,0,0,0,.94h2.63v2.63a.47.47,0,1,0,.93,0Z"/></svg>