<svg id="Calque_1" data-name="Calque 1" xmlns="http://www.w3.org/2000/svg" viewBox="0 0 105.69 91.98"><defs><style>.cls-1,.cls-3{fill:#032552;}.cls-1,.cls-2{fill-rule:evenodd;}.cls-2{fill:#e83d47;}</style></defs><path class="cls-1" d="M59.3,25.61H72.53a.71.71,0,0,0,.69-.69V14.73a.71.71,0,0,0-.69-.69H44.07a.71.71,0,0,0-.68.69V25.35a.75.75,0,0,0,.68.62h9.35v3.21a.64.64,0,0,0,.37.57.47.47,0,0,0,.25,0,.57.57,0,0,0,.4-.14c2-1.66,4.14-3.49,4.79-4Z"/><path class="cls-2" d="M55.14,27.42l-.41.35V25.28a.7.7,0,0,0-.69-.69H44.76V20.41h18V19.1h-18V15.28H71.91v9.09H59.17C58.88,24.37,58.61,24.5,55.14,27.42Z"/><path class="cls-1" d="M47.15,31.45a11.32,11.32,0,0,0-7.79-3.05l-.55,0a11.61,11.61,0,0,0-7.28,20.22,11.59,11.59,0,0,0,7.78,3,11.47,11.47,0,0,0,8.55-3.75,11.29,11.29,0,0,0,3-8.34A11.75,11.75,0,0,0,47.15,31.45ZM46.93,47h0a10,10,0,0,1-7.11,3.33l-.54,0a10.16,10.16,0,0,1-6.86-2.68,10.41,10.41,0,0,1-.73-14.58,10.06,10.06,0,0,1,7.11-3.34h.51a10.49,10.49,0,0,1,6.95,2.67A10.32,10.32,0,0,1,46.93,47Z"/><path class="cls-1" d="M51.09,54.75l-5-.92H46A2.42,2.42,0,0,0,43.92,55l-4.54,6.82L34.84,55a2.41,2.41,0,0,0-2.1-1.12h-.15l-7.47,1.08a2.94,2.94,0,0,0-2.16,1,2.47,2.47,0,0,0-.6,1.95l2.17,16.34a.69.69,0,0,0,.62.58H85.64a.65.65,0,0,0,.65-.65.66.66,0,0,0-.65-.66H55.27l0-.21L53.22,61a2,2,0,0,1,1.17-2.37l6.22-2.4a.74.74,0,0,1,.66.42l4.29,6.4v.08a.73.73,0,0,0,.54.32.74.74,0,0,0,.56-.34.33.33,0,0,1,.15-.2L71,56.7a.86.86,0,0,1,.45-.34l.18-.08,6.24,2.27c1.27.55,1.22,1.5,1,2.59L78,66.66a.67.67,0,0,0,.56.76.68.68,0,0,0,.77-.55l.93-5.59c.15-1,.46-3-1.87-4L72.08,55l-.35-.06a2.33,2.33,0,0,0-1.74,1l-3.74,5.66L62.5,55.89a2.27,2.27,0,0,0-1.89-1,.4.4,0,0,0-.25,0l-6.3,2.46a3.28,3.28,0,0,0-2,3.78l2,12.27H25.8L23.75,57.67a1.08,1.08,0,0,1,.26-.9,1.41,1.41,0,0,1,1.14-.54h.15l7.4-1h0a1.14,1.14,0,0,1,1,.57l5,7.55v.08a.76.76,0,0,0,.55.32.74.74,0,0,0,.55-.34.67.67,0,0,1,.06-.12v0l5-7.5a1.48,1.48,0,0,1,.95-.54H46l4.9.86a.71.71,0,0,0,.51-.11.67.67,0,0,0,.27-.44A.67.67,0,0,0,51.09,54.75Z"/><path class="cls-3" d="M76.75,43v0h0s0,0,0-.08a10.64,10.64,0,0,0-3.4-7.25A10.1,10.1,0,0,0,70,33.51a4.09,4.09,0,0,0,.18-1.34,3.92,3.92,0,0,0-3.91-3.76h-.18a3.91,3.91,0,0,0-3.56,5.11c-.35.13-.69.29-1,.45a2.69,2.69,0,0,0-.29.16,9.31,9.31,0,0,0-1.16.72h0l-.34.24v0a10.21,10.21,0,0,0-1.25,1.13,10.67,10.67,0,0,0,.72,15,10.53,10.53,0,0,0,7.07,2.7A10.53,10.53,0,0,0,76.75,43.17ZM61.2,35.5c.28-.17.55-.33.84-.47l.17-.09a9.71,9.71,0,0,1,1-.41l.24-.07a11.2,11.2,0,0,1,1.11-.27l.11,0a8.08,8.08,0,0,1,.86-.1l.27,0h.66l.44,0h.14l.32,0,.31,0,.3.05.29.06.14,0,.42.11.33.1.36.13c.17.06.34.14.51.21l.3.13.53.29.24.14.56.38.18.13c.23.18.46.37.68.58s.44.43.64.65.12.16.19.23l.37.47c.09.11.16.23.24.35l.25.38c.09.16.17.32.26.47l.15.29c.09.2.18.4.26.6l.07.19c.09.23.16.46.23.7,0,0,0,.08,0,.12.06.24.12.49.17.74a.5.5,0,0,0,0,.12c0,.23.07.47.09.71,0,0,0,.08,0,.13a11.39,11.39,0,0,1-14.45-7Zm3-5a2.75,2.75,0,0,1,1.9-.89h.13a2.66,2.66,0,0,1,1.83.71,2.76,2.76,0,0,1,.88,1.9,2.43,2.43,0,0,1-.12.93l-.9-.18-.21,0c-.25,0-.49-.06-.74-.07l-.16,0h-.12c-.32,0-.63,0-.94,0h0a10.45,10.45,0,0,0-1.37.16l-.33.07-.42.09A2.77,2.77,0,0,1,64.2,30.5Zm8.9,19.22a9.22,9.22,0,0,1-6.9,3,9.35,9.35,0,0,1-6.27-2.39,9.46,9.46,0,0,1-.63-13.28,9.33,9.33,0,0,1,.79-.75,12.65,12.65,0,0,0,3.26,4.84h0a12.67,12.67,0,0,0,8.54,3.26,13,13,0,0,0,3.66-.54A9.08,9.08,0,0,1,73.1,49.72Z"/></svg>