<svg id="Calque_1" data-name="Calque 1" xmlns="http://www.w3.org/2000/svg" viewBox="0 0 105.69 91.98"><defs><style>.cls-1{fill:#032552;}.cls-2{fill:#e83d47;}</style></defs><path class="cls-1" d="M49.31,57.32a.45.45,0,0,0-.46.46v6.14l-.2,0a6,6,0,0,0-3,1.64l-.13.13-.16-.08a6.71,6.71,0,0,0-4.68-.49,6.64,6.64,0,0,0-4.06,3.08,6.72,6.72,0,0,0-.59,5.38.46.46,0,0,0,.44.32l.14,0a.45.45,0,0,0,.26-.23.41.41,0,0,0,0-.34,5.78,5.78,0,0,1,.51-4.65,5.75,5.75,0,0,1,7.26-2.37l.26.11-.15.25a5.41,5.41,0,0,0-.38.71.45.45,0,1,0,.83.37,5.12,5.12,0,0,1,4.09-3,.46.46,0,0,0,.4-.51l0-.06V64.1a.38.38,0,0,0,0-.1V57.78A.45.45,0,0,0,49.31,57.32Z"/><path class="cls-1" d="M65.74,68.24A6.67,6.67,0,0,0,57,65.65l-.16.08-.13-.13a6.08,6.08,0,0,0-3-1.64l-.2,0V57.78a.45.45,0,0,0-.45-.46.46.46,0,0,0-.46.46V64s0,.06,0,.1l0,.06,0,.06a.47.47,0,0,0,.09.37.48.48,0,0,0,.3.17,5.11,5.11,0,0,1,4.09,3A.45.45,0,1,0,58,67.4a4.44,4.44,0,0,0-.38-.71l-.15-.25.27-.11A5.74,5.74,0,0,1,65,68.7a5.74,5.74,0,0,1,.51,4.65.41.41,0,0,0,0,.34.47.47,0,0,0,.27.23l.13,0a.54.54,0,0,0,.21,0,.47.47,0,0,0,.23-.27A6.68,6.68,0,0,0,65.74,68.24Z"/><path class="cls-1" d="M63.87,44.62l-4.49-5.15v-.1c0-.63.07-1.25.07-1.83a21.82,21.82,0,0,0-3-11.17l0-.08c-.31-.48-.64-1-1-1.45l-.31-.4-.23-.27L54.69,24c-.07-.09-.15-.17-.23-.26l-.09-.09-.28-.3L53.74,23c-.31-.3-.63-.58-1-.85l-1.08-.79-.41-.26a.44.44,0,0,0-.47,0l-.42.26-1,.73c-.35.29-.68.58-1,.89l-.32.31c-.32.33-.61.65-.88,1l-.22.26-.19.25-.08.11a15.93,15.93,0,0,0-1,1.37,21.81,21.81,0,0,0-3.1,11.3c0,.59,0,1.21.08,1.83v.1l-4.49,5.15A2.2,2.2,0,0,0,38,47.26l5,8a2.21,2.21,0,0,0,1,.85.41.41,0,0,0,.19,0,.51.51,0,0,0,.17,0A18.42,18.42,0,0,1,51,54.9a18.43,18.43,0,0,1,6.73,1.17.45.45,0,0,0,.36,0,2.21,2.21,0,0,0,1-.85l5-8A2.2,2.2,0,0,0,63.87,44.62Zm-6.72.6A18.1,18.1,0,0,1,56.37,47l0,.1-.1,0A19.11,19.11,0,0,1,46,47.24l-.11,0-.05-.1a19.88,19.88,0,0,1-1-2.25,21.49,21.49,0,0,1-1.26-7.32,20.83,20.83,0,0,1,2.5-10l.15-.27.23.21a7,7,0,0,0,9.27,0l.24-.2.15.27a20.86,20.86,0,0,1,2.46,10A21.36,21.36,0,0,1,57.15,45.22Zm-8.49,6.55a.46.46,0,0,0,0-.65,16,16,0,0,1-1.87-2.31l-.33-.5.59.12a19.9,19.9,0,0,0,8.06-.11l.59-.13-.33.51a16.19,16.19,0,0,1-1.94,2.42.41.41,0,0,0-.13.33.44.44,0,0,0,.13.32.48.48,0,0,0,.32.13h0a.39.39,0,0,0,.31-.14A18.28,18.28,0,0,0,58,45.55a21.67,21.67,0,0,0,1.16-4.32l.09-.52,3.93,4.51a1.29,1.29,0,0,1,.13,1.56l-5,7.95a1.34,1.34,0,0,1-.3.33l-.11.09-.13,0a21.11,21.11,0,0,0-13.51,0l-.13,0-.11-.09a1.34,1.34,0,0,1-.3-.33l-5-7.95a1.31,1.31,0,0,1,.12-1.56l3.94-4.51.09.52a21.29,21.29,0,0,0,1,3.94A18.42,18.42,0,0,0,48,51.76.48.48,0,0,0,48.66,51.77Zm6.63-25.14a6.06,6.06,0,0,1-4.21,1.69,6,6,0,0,1-4.25-1.74l-.15-.14.12-.18a15,15,0,0,1,3.5-3.74l.05,0c.21-.16.39-.28.56-.39L51,22l.14.09.56.38a15.09,15.09,0,0,1,3.58,3.83l.12.18Z"/><path class="cls-1" d="M51,33.24A4.93,4.93,0,1,0,56,38.17,4.93,4.93,0,0,0,51,33.24Zm0,8.95a4,4,0,1,1,4-4A4,4,0,0,1,51,42.19Z"/><path class="cls-2" d="M44.8,44.86a19.88,19.88,0,0,0,1,2.25l.05.1.11,0a19.11,19.11,0,0,0,10.27-.15l.1,0,0-.1a18.1,18.1,0,0,0,.78-1.74,21.36,21.36,0,0,0,1.39-7.68,20.86,20.86,0,0,0-2.46-10l-.15-.27-.24.2a7,7,0,0,1-9.27,0l-.23-.21-.15.27a20.83,20.83,0,0,0-2.5,10A21.49,21.49,0,0,0,44.8,44.86ZM51,33.24a4.93,4.93,0,1,1-4.92,4.93A4.93,4.93,0,0,1,51,33.24Z"/></svg>