<svg id="Calque_1" data-name="Calque 1" xmlns="http://www.w3.org/2000/svg" viewBox="0 0 105.69 91.98"><defs><style>.cls-1{fill:#032552;}.cls-2{fill:#e83d47;}</style></defs><path class="cls-1" d="M39.29,29.77a8.12,8.12,0,0,0,5.39-.39c2.61-1.09,3.64-.7,4.64-.4l.45.15c1.23.36,13.59,4.54,13.68,4.57a.37.37,0,0,1,.2.14s.11.46-.46,1.49c-.77,1.41-2,1.72-4.31,1-.71-.21-1.52-.51-2.35-.8-3.62-1.28-4-1.4-4.22-.81v.08a8.56,8.56,0,0,1-3.67,4.51c-2.76,1.51-4.81,1.14-7.85.34a.48.48,0,0,0-.55.4.47.47,0,0,0,.31.52,17.42,17.42,0,0,0,4.3.71,8.47,8.47,0,0,0,4.22-1.16,9.26,9.26,0,0,0,4-4.74c.6.15,2,.65,3.11,1l2.37.82c1.71.55,4.13,1,5.45-1.41a2.92,2.92,0,0,0,.5-2.29,1.18,1.18,0,0,0-.76-.7c-.1,0-12.51-4.22-13.73-4.59l-.41-.14c-1.12-.38-2.38-.8-5.32.42a7,7,0,0,1-5.19.19H39a2.35,2.35,0,0,0-1.32-1.14L33.33,26a2.42,2.42,0,0,0-3.1,1.46v0L25,42.22a2.36,2.36,0,0,0,.1,1.84,2.41,2.41,0,0,0,1.4,1.24l4.38,1.54A2.4,2.4,0,0,0,34,45.36L39.18,30.6A2.6,2.6,0,0,0,39.29,29.77Z"/><path class="cls-2" d="M38.25,30.31l-5.2,14.76a1.46,1.46,0,0,1-1.83.87l-4.4-1.54a1.46,1.46,0,0,1-.83-.75,1.41,1.41,0,0,1-.07-1.12l5.19-14.76A1.47,1.47,0,0,1,33,26.88l4.38,1.54a1.45,1.45,0,0,1,.89,1.87Z"/><path class="cls-1" d="M82.48,42.39,75.73,28.33a2.42,2.42,0,0,0-3.22-1.13l-4.22,2a2.43,2.43,0,0,0-1.23,1.4,2.38,2.38,0,0,0,.1,1.85L73.9,46.51a2.42,2.42,0,0,0,.91.94c-.4.53-1.69,1.93-5.58,4.34C64.06,55,57.44,58.67,57.37,58.71L49.7,62.92a1.43,1.43,0,0,1-1.11.12,1.48,1.48,0,0,1-.89-.77l-.37-.7A1.6,1.6,0,0,1,48,59.46l7-4a.47.47,0,0,0,.17-.64.46.46,0,0,0-.64-.18h0l-.17.09h-.12L44,60a1.63,1.63,0,0,1-2.15-.62l-.38-.71a1.37,1.37,0,0,1,.08-1.47l9.34-5.07,1.46-.77a.48.48,0,0,0,.2-.64.47.47,0,0,0-.63-.2h0l-1.45.76h0l-8.76,4.56a2.63,2.63,0,0,0-.8.65l-1.14.62a1.41,1.41,0,0,1-1.85-.56L37.58,56a1.29,1.29,0,0,1,.61-1.8l7.93-4.28h0l2.59-1.4a.48.48,0,0,0,0-.68.49.49,0,0,0-.47-.14l-2.58,1.41-6.63,3.24a1.46,1.46,0,0,1-1.16.1,1.49,1.49,0,0,1-.9-.75l-.38-.7a1.56,1.56,0,0,1,.63-2.1h0l6.14-3.3a.49.49,0,0,0,.2-.65.48.48,0,0,0-.64-.19L36.84,48a2.52,2.52,0,0,0-1,3.37l.37.7a2.41,2.41,0,0,0,1.44,1.22h.1a2.24,2.24,0,0,0-1.14,1.41,2.2,2.2,0,0,0,.16,1.74l.34.63a2.32,2.32,0,0,0,2.05,1.21A2.42,2.42,0,0,0,40.21,58l.16-.08a2.35,2.35,0,0,0,.28,1.27l.38.71a2.57,2.57,0,0,0,2.25,1.29,2.65,2.65,0,0,0,1.17-.28l1.94-1a2.54,2.54,0,0,0,.08,2.14l.36.71A2.42,2.42,0,0,0,49,64.11a2.39,2.39,0,0,0,1.14-.3l7.67-4.22c.06,0,6.71-3.7,11.91-6.93,4.3-2.68,5.62-4.22,6-4.79a2,2,0,0,0,.43,0,2.37,2.37,0,0,0,1-.24l4.22-2a2.41,2.41,0,0,0,1.14-3.21h0Z"/><path class="cls-2" d="M80.93,44.76l-4.18,2a1.47,1.47,0,0,1-2-.7h0L68,32a1.46,1.46,0,0,1,.7-1.95L73,28a1.44,1.44,0,0,1,1.92.67l6.74,14.06a1.47,1.47,0,0,1-.65,2Z"/></svg>