<svg id="Calque_1" data-name="Calque 1" xmlns="http://www.w3.org/2000/svg" viewBox="0 0 105.69 91.98"><defs><style>.cls-1{fill:#e83d47;}.cls-2{fill:#032552;}</style></defs><path class="cls-1" d="M64.08,57.86a3.43,3.43,0,0,1,3.6,0l.09.07L78,68.19a3.13,3.13,0,0,1-.3,4,3.65,3.65,0,0,1-2.52,1.21,3.92,3.92,0,0,1-2.7-1.22C71.26,71,64,63.53,63,62.6l-.11-.14A3.45,3.45,0,0,1,64.08,57.86Z"/><path class="cls-2" d="M47.68,35.42c-.21,0-.35,0-.4,0A5.26,5.26,0,0,0,42,40.78c.75,4.26,2.63,6.62,5.29,6.7s4.4-2.34,5.18-6.39l.05-.28a5.85,5.85,0,0,0-1.91-4.4A4.76,4.76,0,0,0,47.68,35.42Zm4.11,5.78c-.74,3.61-2.29,5.55-4.48,5.62h0c-2.2-.07-3.76-2-4.5-5.52L42.72,41l1.81-.8a1.06,1.06,0,0,1,.87,0l.7.35a1.93,1.93,0,0,0,2.23-.34l.41-.39A1,1,0,0,1,50,39.69l1.84,1.25Zm-.21-2.1.33,1.08-1.53-1a1.69,1.69,0,0,0-2.12.19l-.4.39a1.27,1.27,0,0,1-1.47.23l-.7-.36a1.7,1.7,0,0,0-1.43,0l-1.62.72.24-.83a4.51,4.51,0,0,1,4.47-3.36,4.11,4.11,0,0,1,2.86.83A4.2,4.2,0,0,1,51.58,39.1Z"/><path class="cls-2" d="M78.59,67.68,68.24,57.28h0a4.41,4.41,0,0,0-3.52-.64l-.33.1-3.7-3.69.32-.4a17.56,17.56,0,1,0-25.08,2.58,17.68,17.68,0,0,0,21.76.67l.4-.3,3.78,3.78-.07.31A4.62,4.62,0,0,0,62.3,63l.12.11c.71.68,8.17,8.28,9.51,9.67a4.51,4.51,0,0,0,3.21,1.43,4.24,4.24,0,0,0,3-1.39A4,4,0,0,0,78.59,67.68ZM47.3,58.54A16.71,16.71,0,1,1,64,41.86,16.73,16.73,0,0,1,47.3,58.54Zm14.87,0-3.5-3.49.43-.41.63-.62.41-.4,3.44,3.44-.46.4a5.07,5.07,0,0,0-.55.58Zm15.5,13.66a3.65,3.65,0,0,1-2.52,1.21,3.92,3.92,0,0,1-2.7-1.22C71.26,71,64,63.53,63,62.6l-.11-.14a3.42,3.42,0,0,1,4.8-4.57l.09.07L78,68.19A3.13,3.13,0,0,1,77.67,72.23Z"/><path class="cls-2" d="M47.3,30.12A12.27,12.27,0,1,0,59.56,42.44,12.28,12.28,0,0,0,47.3,30.12Zm-7.74,20.8a2.48,2.48,0,0,1,2.37-1.81h2.12L46.1,52l.32.43.12.16a1.14,1.14,0,0,0,.25.18l.07,0a1.58,1.58,0,0,0,.31.09h.1a1.05,1.05,0,0,0,.87-.45l2.35-3.37h2.12A2.49,2.49,0,0,1,55,50.93a11.46,11.46,0,0,1-15.43,0Zm16-.57a3.22,3.22,0,0,0-3-2H50.1L47.52,52a.41.41,0,0,1-.27.13h0l-.1-.1L47,52h0l-2.58-3.68H41.93a3.22,3.22,0,0,0-3,2,11.37,11.37,0,0,1-3.2-7.9,11.5,11.5,0,1,1,23,0A11.41,11.41,0,0,1,55.58,50.35Z"/></svg>