<svg id="Calque_1" data-name="Calque 1" xmlns="http://www.w3.org/2000/svg" viewBox="0 0 105.69 91.98"><defs><style>.cls-1{fill:#fab937;}</style></defs><path class="cls-1" d="M68.8,44a1.87,1.87,0,0,0,.47-1.93,1.78,1.78,0,0,0-1.5-1.28l-8.65-1.25a1,1,0,0,1-.77-.55l-3.86-7.85a1.88,1.88,0,0,0-3.34,0L47.29,39a1,1,0,0,1-.77.55l-8.61,1.25a1.89,1.89,0,0,0-1,3.21l6.21,6.08a1,1,0,0,1,.3.9l-1.45,8.62a1.87,1.87,0,0,0,.43,1.49,1.85,1.85,0,0,0,2.31.48l7.71-4.07a.9.9,0,0,1,1,0l7.71,4.07a2,2,0,0,0,.85.21,1.81,1.81,0,0,0,1.42-.69,1.73,1.73,0,0,0,.43-1.49L62.29,51a1,1,0,0,1,.3-.9Z"/></svg>