<svg id="Calque_1" data-name="Calque 1" xmlns="http://www.w3.org/2000/svg" viewBox="0 0 105.69 91.98"><defs><style>.cls-1{fill:#e83d47;}.cls-2{fill:#032552;}</style></defs><polygon class="cls-1" points="66.17 25.52 72.47 30.77 68.95 34.8 62.8 29.55 66.17 25.52"/><path class="cls-2" d="M73.56,30.21l-7.12-6a.5.5,0,0,0-.31-.11.62.62,0,0,0-.48.26L43.6,50.69a.49.49,0,0,0-.14.22l.06.12v0l.5,6.51a.77.77,0,0,0,.71.63l6.44-.62c.16,0,.28-.13.47-.31L73.75,31A.72.72,0,0,0,73.56,30.21ZM50.81,56.4,45.1,57l-.45-5.72L62,30.53l6.3,5.24ZM69,34.79l-6.14-5.24,3.36-4,6.3,5.25Z"/><path class="cls-2" d="M52.6,26.39A20.74,20.74,0,1,0,73.34,47.12a.48.48,0,0,0-.16-.4.63.63,0,0,0-.42-.14.53.53,0,0,0-.58.54A19.58,19.58,0,1,1,52.6,27.55a.58.58,0,0,0,0-1.16Z"/></svg>