<svg id="Calque_1" data-name="Calque 1" xmlns="http://www.w3.org/2000/svg" viewBox="0 0 105.69 91.98"><defs><style>.cls-1{fill:#032552;}.cls-2{fill:#e83d47;}</style></defs><path class="cls-1" d="M39.58,34.36H39a1.57,1.57,0,0,0-1.58,1.52V44A1.62,1.62,0,0,0,39,45.57h.56A1.58,1.58,0,0,0,41.11,44l0-5.84a.41.41,0,0,0-.76,0V44.1a.76.76,0,0,1-.74.78H39a.8.8,0,0,1-.79-.79V35.67l.14-.17a.82.82,0,0,1,.59-.25h.58a.79.79,0,0,1,.77.58l0,.1V36a.3.3,0,0,0,.07.24.38.38,0,0,0,.28.14.37.37,0,0,0,.31-.06s.14-.11.14-.41A1.6,1.6,0,0,0,39.58,34.36Z"/><path class="cls-1" d="M45.37,30.36h-.58a1.58,1.58,0,0,0-1.58,1.52V44a1.62,1.62,0,0,0,1.55,1.58h.56A1.58,1.58,0,0,0,46.9,44V34.1a.41.41,0,0,0-.77,0v10a.76.76,0,0,1-.74.78h-.58a.8.8,0,0,1-.79-.79V31.94a.76.76,0,0,1,.74-.79h.58c.16,0,.68.05.8.78a.42.42,0,0,0,.41.32c.16,0,.31-.15.37-.37v-.06A1.52,1.52,0,0,0,45.37,30.36Z"/><path class="cls-1" d="M51.16,33.3h-.58A1.57,1.57,0,0,0,49,34.83v9.26a1.62,1.62,0,0,0,1.55,1.58h.56a1.58,1.58,0,0,0,1.58-1.58l0-7.09a.41.41,0,0,0-.76,0V44.1a.76.76,0,0,1-.74.78h-.58a.8.8,0,0,1-.79-.79V34.83a.73.73,0,0,1,.74-.74h.58c.16,0,.68.06.8.79a.42.42,0,0,0,.41.32c.16,0,.31-.16.37-.37v-.07A1.52,1.52,0,0,0,51.16,33.3Z"/><path class="cls-1" d="M70.26,69.57A4.5,4.5,0,0,0,73.47,71a4.2,4.2,0,0,0,3-1.39,4,4,0,0,0,.42-5.15L66.57,54h0a4.38,4.38,0,0,0-3.51-.64l-.33.1L59,49.81l.32-.4A17.56,17.56,0,1,0,34.26,52,17.68,17.68,0,0,0,56,52.66l.4-.3,3.77,3.78-.07.31a4.67,4.67,0,0,0,.5,3.33l.13.11C61.47,60.57,68.92,68.17,70.26,69.57ZM45.63,55.31A16.72,16.72,0,1,1,62.37,38.62,16.73,16.73,0,0,1,45.63,55.31Zm14.87,0L57,51.84l.43-.41.63-.61.41-.41,3.44,3.44-.46.41a4.25,4.25,0,0,0-.55.57Zm1.92-.7a3.43,3.43,0,0,1,3.6,0l.09.08L76.31,65A3.12,3.12,0,0,1,76,69a3.57,3.57,0,0,1-2.51,1.21A3.82,3.82,0,0,1,70.79,69c-1.19-1.23-8.5-8.69-9.46-9.62l-.11-.14A3.43,3.43,0,0,1,62.42,54.63Z"/><path class="cls-2" d="M62.42,54.63a3.43,3.43,0,0,1,3.6,0l.09.08L76.31,65A3.12,3.12,0,0,1,76,69a3.57,3.57,0,0,1-2.51,1.21A3.82,3.82,0,0,1,70.79,69c-1.19-1.23-8.5-8.69-9.46-9.62l-.11-.14A3.43,3.43,0,0,1,62.42,54.63Z"/><path class="cls-1" d="M33.37,39.15A12.27,12.27,0,1,0,45.63,26.88,12.27,12.27,0,0,0,33.37,39.15Zm23.74.05A11.5,11.5,0,1,1,45.63,27.67,11.48,11.48,0,0,1,57.11,39.2Z"/></svg>