<svg id="Calque_1" data-name="Calque 1" xmlns="http://www.w3.org/2000/svg" viewBox="0 0 105.69 91.98"><defs><style>.cls-1{fill:#032552;}.cls-2{fill:#e83d47;}</style></defs><path class="cls-1" d="M76.07,46.7l-2-.68a.28.28,0,0,1-.19-.19l-.07-.25A7.19,7.19,0,0,0,73,43.69a.56.56,0,0,0-.35-.22.54.54,0,0,0-.41.08.59.59,0,0,0-.23.35.53.53,0,0,0,.08.41,6.33,6.33,0,0,1,.7,1.6l.07.26a1.43,1.43,0,0,0,.91.9l2,.68a2.18,2.18,0,0,1,1.52,2.09V53.2a2.18,2.18,0,0,1-1.52,2.09l-3.3,1.05a1.43,1.43,0,0,0-.75.62,15.19,15.19,0,0,1-6.29,5.78.56.56,0,0,0-.27.38l-1,5.44a1.21,1.21,0,0,1-1.2,1H59.5a1.23,1.23,0,0,1-1.21-1l-.53-2.82a.54.54,0,0,0-.61-.44,31.62,31.62,0,0,1-7.53.14.53.53,0,0,0-.59.44l-.5,2.69a1.23,1.23,0,0,1-1.22,1H43.89a1.23,1.23,0,0,1-1.21-1l-1-5.14a.59.59,0,0,0-.29-.38A14.22,14.22,0,0,1,36,58.1a14.49,14.49,0,0,1-2-7.73c0-.2,0-.4,0-.62s0-.34,0-.49l.15-1.44a13.2,13.2,0,0,1,6.75-9.93.55.55,0,0,0,.18-.71.53.53,0,0,0-.32-.27.52.52,0,0,0-.42,0,14.47,14.47,0,0,0-7.28,10.74l0,.4h-.11a7.89,7.89,0,0,1-1.05.08h-.11v-.11a5.89,5.89,0,0,0-.7-2.27c-.34-.62-.92-1.37-1.7-1.42h0a1.6,1.6,0,0,0-1.23.55,2.52,2.52,0,0,0-.73,1.94c.13,1.33,1.74,2.11,3.07,2.37l.13,0,0,.13a2.82,2.82,0,0,1-.28.75,3.82,3.82,0,0,1-2.46,1.69.58.58,0,0,0-.38.21.57.57,0,0,0-.12.41.56.56,0,0,0,.61.48h.2a4.82,4.82,0,0,0,3.14-2.27,4.09,4.09,0,0,0,.43-1.26l0-.1h.1l1-.08h.14v.14c0,.37,0,.74,0,1a15.54,15.54,0,0,0,2.25,8.3,15.1,15.1,0,0,0,5.5,5.18l0,0,.92,4.82a2.32,2.32,0,0,0,2.28,1.92h3.43a2.34,2.34,0,0,0,2.29-1.92l.4-2.13h.11a32.59,32.59,0,0,0,6.55-.12h.11l.43,2.28a2.34,2.34,0,0,0,2.29,1.92h3.43a2.34,2.34,0,0,0,2.28-1.9l1-5.18.06,0a16.3,16.3,0,0,0,6.43-6.06.18.18,0,0,1,.13-.1L76.1,56.3a3.23,3.23,0,0,0,2.26-3.1V49.83A3.27,3.27,0,0,0,76.07,46.7ZM29.26,45.54h.07c.16,0,.53.34.9,1.08A5.17,5.17,0,0,1,30.67,48l0,.19-.18,0c-.9-.21-1.91-.73-2-1.37a1.45,1.45,0,0,1,.36-.94A.78.78,0,0,1,29.26,45.54Z"/><path class="cls-1" d="M62.46,45.4a6.35,6.35,0,0,0,3.61,1.16h.17a4.84,4.84,0,0,0,2.17-.5c1.26-.72,2.16-3.83,2.47-6.42.35-3,0-5-.47-5.48a.5.5,0,0,0-.19-.13,1.41,1.41,0,0,0-.53-.09c-1.38,0-4.47,1-8.28,2.79a1.64,1.64,0,0,0-.92,1.14C59.57,42.22,61.05,44.37,62.46,45.4Zm-.91-7.29a.53.53,0,0,1,.32-.36c4.11-1.91,6.67-2.65,7.69-2.7h.11l0,.11a12.27,12.27,0,0,1,.08,4.4h0c-.35,3-1.27,5.21-1.91,5.58a5,5,0,0,1-1.87.36,4.88,4.88,0,0,1-2.89-1C61,43,61.11,40.21,61.55,38.11Z"/><path class="cls-1" d="M68.33,49.9a1.47,1.47,0,0,1-2.94,0,.55.55,0,1,0-1.09,0,2.57,2.57,0,0,0,5.13,0,.55.55,0,1,0-1.1,0Z"/><path class="cls-1" d="M45.81,38.29a11,11,0,0,0-2.73,1.87.56.56,0,0,0-.17.38.51.51,0,0,0,.15.39.53.53,0,0,0,.4.17.54.54,0,0,0,.34-.16,9.87,9.87,0,0,1,13.5,0,.55.55,0,0,0,.77,0,.52.52,0,0,0,.17-.39.54.54,0,0,0-.17-.39,11,11,0,0,0-2.73-1.86,9.69,9.69,0,0,0-1.09-17.43,9.7,9.7,0,0,0-8.44,17.43ZM42.76,26.65a8.38,8.38,0,0,1,4.55-4.6,8.5,8.5,0,0,1,6.47,0,8.45,8.45,0,0,1,0,15.66,10.9,10.9,0,0,0-6.35,0h0A8.45,8.45,0,0,1,42.76,26.65Z"/><path class="cls-2" d="M53.76,37.8a11.14,11.14,0,0,0-3.18-.48,10.9,10.9,0,0,0-3.2.49l0,0A8.58,8.58,0,0,1,53.82,21.9a8.58,8.58,0,0,1,4.71,11.18A8.6,8.6,0,0,1,53.76,37.8Z"/></svg>