<svg id="Calque_1" data-name="Calque 1" xmlns="http://www.w3.org/2000/svg" viewBox="0 0 105.69 91.98"><defs><style>.cls-1,.cls-2{fill:#032552;}.cls-1,.cls-3{fill-rule:evenodd;}.cls-3{fill:#e83d47;}</style></defs><path class="cls-1" d="M65,37.52a.35.35,0,0,1,.35.35.34.34,0,0,1-.35.34h-7.6a.35.35,0,1,1,0-.69Z"/><path class="cls-1" d="M65,41.35a.35.35,0,0,1,.35.34A.34.34,0,0,1,65,42h-7.6a.35.35,0,1,1,0-.69Z"/><path class="cls-1" d="M65,45.17a.35.35,0,0,1,.35.35.35.35,0,0,1-.35.35h-7.6a.35.35,0,0,1,0-.7Z"/><path class="cls-1" d="M65,49a.35.35,0,0,1,.35.35.35.35,0,0,1-.35.35h-7.6a.35.35,0,0,1,0-.7Z"/><path class="cls-2" d="M39.86,45.18v0Z"/><path class="cls-2" d="M39.85,45.23s0,.07,0,.11a.22.22,0,0,0,0,.08C39.84,45.35,39.84,45.29,39.85,45.23Z"/><path class="cls-2" d="M46,40.39h0Z"/><path class="cls-2" d="M45.93,40.38h0Z"/><path class="cls-2" d="M45.72,40.37h0Z"/><path class="cls-2" d="M44.92,40.39h0Z"/><path class="cls-2" d="M39.82,45.45v0Z"/><path class="cls-2" d="M45.25,40.37h0Z"/><path class="cls-2" d="M45,40.38h0Z"/><path class="cls-2" d="M50.63,42.25l-.06-.07a6.4,6.4,0,0,0-10.19,0l0,0a6.4,6.4,0,0,0-1.21,3,1.64,1.64,0,0,1,0,.22.22.22,0,0,1,0,.08v.6a6.32,6.32,0,0,0,1.16,3.58l0,0a6.12,6.12,0,0,0,.39.5l.07.07c.1.11.21.23.32.33l.08.08.08.07.36.3.11.08.07,0,.09.07h0l.17.11.08.05.17.11,0,0,.19.1.06,0,.2.1.06,0L43,52l.09,0,.22.09.27.09h0a6.69,6.69,0,0,0,1.91.29,6.41,6.41,0,0,0,1.87-.28h0a6.49,6.49,0,0,0,3.29-2.4l0-.06a6.35,6.35,0,0,0,1.14-3.65v.14s0,0,0-.06v-.08A6.36,6.36,0,0,0,50.63,42.25Zm-.49.56h0a5.65,5.65,0,0,1,1,3V46h0l-1.92-1.12ZM47.86,40.9h0a5.56,5.56,0,0,1,1.8,1.31.36.36,0,0,0-.08.12l-1,2.34-1.14.11L47,44.45a7.63,7.63,0,0,1-1-.7l-.12-.1,0-.91L47.78,41A.28.28,0,0,0,47.86,40.9Zm-4-.29a3.59,3.59,0,0,1,.47-.12l-.08,0,.09,0,.14,0-.11,0,.18,0,.35-.05-.15,0,.19,0h1.21a5.48,5.48,0,0,1,1,.21v0l-1.66,1.48-1.66-1.48Zm-.83.32.1,0a.28.28,0,0,0,.08.12l2,1.74,0,.87a6.46,6.46,0,0,1-1.59.75l-.25.08-.94.15-1-2.28a.27.27,0,0,0-.09-.12A5.82,5.82,0,0,1,43,40.93Zm-3.22,5,0-.47c0,.05,0,.11,0,.16v-.19l0-.11,0-.13v-.12s0,.06,0,.09l0-.15a5.56,5.56,0,0,1,.93-2.22h0l.9,2L39.82,46Zm.87,2.85a.34.34,0,0,0-.14.05,5.69,5.69,0,0,1-.69-2.12.34.34,0,0,0,.14,0l2.35-1.36.75-.12v.56c0,.36,0,.72,0,1.08l0,.53v1.18Zm3,2.64A5.66,5.66,0,0,1,41,49.5v0l2.21-.22.47,2.18Zm.15-6.39a7.44,7.44,0,0,0,1.73-.8,11.21,11.21,0,0,0,1.07.78l.34.24a17.82,17.82,0,0,1-.77,2.07,9.82,9.82,0,0,1-2.34-.25c0-.62,0-1.25,0-1.85Zm2.84,6.6a6,6,0,0,1-1.12.11,5.91,5.91,0,0,1-1.12-.11.38.38,0,0,0,0-.15l-.58-2.67v-1A10.35,10.35,0,0,0,46,48h.22l.93.94L46.6,51.5A.26.26,0,0,0,46.61,51.65Zm.75-.21h0l.46-2.18,2.22.23v0A5.78,5.78,0,0,1,47.36,51.44Zm3.79-4.71a5.53,5.53,0,0,1-.7,2.12.29.29,0,0,0-.13-.05l-2.64-.26-.9-.93a18.72,18.72,0,0,0,.67-1.76l.13-.39,1.14-.11L51,46.68a.34.34,0,0,0,.17,0Z"/><path class="cls-2" d="M43.53,52.15h0l-.23-.07Z"/><path class="cls-2" d="M44.32,40.49h0Z"/><path class="cls-1" d="M65,52.83a.35.35,0,0,1,.35.35.35.35,0,0,1-.35.35h-7.6a.35.35,0,0,1,0-.7Z"/><path class="cls-1" d="M65,56.66a.35.35,0,0,1,.35.35.35.35,0,0,1-.35.35H36a.35.35,0,0,1,0-.7Z"/><path class="cls-1" d="M65,60.49a.35.35,0,0,1,.35.35.35.35,0,0,1-.35.35H36a.35.35,0,0,1,0-.7Z"/><path class="cls-1" d="M65,64.31a.35.35,0,0,1,.35.35A.34.34,0,0,1,65,65H36a.34.34,0,0,1-.35-.35.35.35,0,0,1,.35-.35Z"/><path class="cls-1" d="M65,25.13H36a.35.35,0,0,0-.35.35v9.33a.35.35,0,0,0,.35.35H65a.35.35,0,0,0,.35-.35V25.48A.35.35,0,0,0,65,25.13ZM42.07,32.05h-.5l-1.21-1.93a13.74,13.74,0,0,1-.71-1.27h0c0,.41,0,.81,0,1.31v1.89h-.46V28.24h.54L41,30.17a11.31,11.31,0,0,1,.68,1.24h0c0-.51,0-1,0-1.57v-1.6h.46Zm6.29,0H46.22V28.24h2.06v.41H46.71v1.21h1.48v.41H46.71v1.37h1.65Zm6.82,0h-.52l-.48-2a11,11,0,0,1-.25-1.25h0a12.61,12.61,0,0,1-.29,1.25l-.55,2h-.51l-1-3.82h.52l.45,1.93c.11.48.22,1,.28,1.32h0c.06-.38.18-.83.31-1.32l.51-1.93h.52l.46,1.94c.11.45.21.9.27,1.31h0c.08-.42.19-.85.3-1.32l.51-1.93h.5Zm5.22,0a1.93,1.93,0,0,1-1-.24l.12-.41a1.83,1.83,0,0,0,.89.25c.5,0,.8-.27.8-.66s-.21-.56-.72-.75-1-.55-1-1.09a1.09,1.09,0,0,1,1.23-1,1.72,1.72,0,0,1,.85.19l-.14.4a1.48,1.48,0,0,0-.72-.18c-.52,0-.72.31-.72.57s.23.53.76.74,1,.56,1,1.11S61.3,32.11,60.4,32.11Z"/><path class="cls-3" d="M36.3,25.83v8.63H64.64V25.83Zm5.77,6.22h-.5l-1.21-1.93a13.74,13.74,0,0,1-.71-1.27h0c0,.41,0,.81,0,1.31v1.89h-.46V28.24h.54L41,30.17a11.31,11.31,0,0,1,.68,1.24h0c0-.51,0-1,0-1.57v-1.6h.46Zm6.29,0H46.22V28.24h2.06v.41H46.71v1.21h1.48v.41H46.71v1.37h1.65Zm6.82,0h-.52l-.48-2a11,11,0,0,1-.25-1.25h0a12.61,12.61,0,0,1-.29,1.25l-.55,2h-.51l-1-3.82h.52l.45,1.93c.11.48.22,1,.28,1.32h0c.06-.38.18-.83.31-1.32l.51-1.93h.52l.46,1.94c.11.45.21.9.27,1.31h0c.08-.42.19-.85.3-1.32l.51-1.93h.5Zm5.22,0a1.93,1.93,0,0,1-1-.24l.12-.41a1.83,1.83,0,0,0,.89.25c.5,0,.8-.27.8-.66s-.21-.56-.72-.75-1-.55-1-1.09a1.09,1.09,0,0,1,1.23-1,1.72,1.72,0,0,1,.85.19l-.14.4a1.48,1.48,0,0,0-.72-.18c-.52,0-.72.31-.72.57s.23.53.76.74,1,.56,1,1.11S61.3,32.11,60.4,32.11Z"/><path class="cls-1" d="M55,37.52H36a.34.34,0,0,0-.35.35V54.26a.35.35,0,0,0,.35.35H55a.35.35,0,0,0,.35-.35V37.87A.35.35,0,0,0,55,37.52Zm-.35,16.39H36.3V38.21H54.67Z"/><path class="cls-1" d="M77,44.54H69v-22a.35.35,0,0,0-.35-.35H32.34a.35.35,0,0,0-.35.35v40a5,5,0,0,0,5,5H72.81c2.49,0,4.52-2.38,4.52-5.3V44.89A.34.34,0,0,0,77,44.54ZM37,66.88a4.3,4.3,0,0,1-4.29-4.29V22.93H68.26v22h0V62.28a5.51,5.51,0,0,0,2.29,4.6Zm39.66-4.6c0,2.54-1.73,4.6-3.84,4.6S69,64.82,69,62.28v-17h7.68Z"/></svg>