<svg id="Calque_1" data-name="Calque 1" xmlns="http://www.w3.org/2000/svg" viewBox="0 0 105.69 91.98"><defs><style>.cls-1{fill:#032552;}.cls-2{fill:#e83d47;}</style></defs><path class="cls-1" d="M59.34,52.35h0l.2,6.95h0L61,57.87l1.24,3h0l1.08-.45-1.26-3h2Z"/><path class="cls-1" d="M80.48,32.7a2,2,0,0,0-1.38-.56l-16.19-.06a4,4,0,0,0-4,3.88v1.26H46.36V36a4,4,0,0,0-1.14-2.79,3.83,3.83,0,0,0-2.62-1.14h-.19l-16.3.06a2.14,2.14,0,0,0-2,2.2A2.34,2.34,0,0,0,24.79,36a1.94,1.94,0,0,0,1.22.55h1.77l-.16.62a2.68,2.68,0,0,0-.11.65,2.26,2.26,0,0,0,.69,1.63,2,2,0,0,0,1.21.56l.74,0-.12.73a1.59,1.59,0,0,0-.08.45,2.3,2.3,0,0,0,.69,1.64,1.87,1.87,0,0,0,1.2.56H32l6-.06a.5.5,0,0,0,0-1h-.42L32,42.42a1,1,0,0,1-.68-.28,1.24,1.24,0,0,1-.34-.93A1.13,1.13,0,0,1,32,40l4.69-.07a.48.48,0,0,0,.47-.53.5.5,0,0,0-.43-.46h-2l-5.2.06a1,1,0,0,1-.68-.27,1.28,1.28,0,0,1-.34-.93,1.14,1.14,0,0,1,1-1.21l4.68-.06A.48.48,0,0,0,34.6,36a.47.47,0,0,0-.53-.46H31.38L26,35.61a1,1,0,0,1-.69-.28l-.21-.21.09-.3a1.05,1.05,0,0,0,0-.18,2.66,2.66,0,0,1,0-.3,1.09,1.09,0,0,1,1-1.21l16.19-.06a2.75,2.75,0,0,1,2.11.88A2.91,2.91,0,0,1,45.3,36v1.21H42.16a1.23,1.23,0,0,0-1.22,1.23v5.08c0,2.27,0,4.54,0,6.82v1.73a1.63,1.63,0,0,0,1.62,1.62H56.94l0-1H42.67a.26.26,0,0,1-.18-.44L48.72,46l2,2a2.69,2.69,0,0,0,3.77,0l2-2,7.25,7.22a1.26,1.26,0,0,0,.53-1.18V38.21a1,1,0,0,0-1-1H59.84V36a3,3,0,0,1,3-2.94l16.25.06a1,1,0,0,1,.67.27,1.28,1.28,0,0,1,.34.94,1.52,1.52,0,0,1-.27.85,1.5,1.5,0,0,1-.51.36l-.11.06h-.13L71,35.55a.49.49,0,0,0-.47.46.55.55,0,0,0,.53.53l4.63.06a.83.83,0,0,1,.72.4,1.29,1.29,0,0,1,.29.87,1.2,1.2,0,0,1-.87,1.2h-.15L68.57,39a.5.5,0,0,0-.47.47.55.55,0,0,0,.53.53l4.63.06a.84.84,0,0,1,.72.39,1.31,1.31,0,0,1,.29.88,1.16,1.16,0,0,1-.88,1.19l-.14,0L67,42.48a.5.5,0,0,0-.46.47.56.56,0,0,0,.53.53l6.17.06a2.14,2.14,0,0,0,2-2.2,2,2,0,0,0-.1-.55l-.22-.66h.69a2.14,2.14,0,0,0,2.07-2.19,2.68,2.68,0,0,0-.11-.65l-.16-.62H79.1A2,2,0,0,0,80.52,36a2.33,2.33,0,0,0,.59-1.53A2.38,2.38,0,0,0,80.48,32.7ZM41.92,51.41V39.23L48,45.32ZM63.29,39.23V51.41L57.2,45.32Z"/><path class="cls-2" d="M62.89,38.14l-6.68,6.75a.56.56,0,0,1-.21.22l-2.17,2.17a1.75,1.75,0,0,1-1.23.49h0a1.74,1.74,0,0,1-1.22-.49l-9.14-9.14Z"/></svg>