<svg id="Calque_1" data-name="Calque 1" xmlns="http://www.w3.org/2000/svg" viewBox="0 0 105.69 91.98"><defs><style>.cls-1{fill:#032552;}.cls-2{fill:#e83d47;}</style></defs><path class="cls-1" d="M73.67,52.67c-.85-1.52-3.16-1.37-4.11-1.24l-.26,0,.1-.25a11.09,11.09,0,0,0,.64-4c0-6.5-4.11-13.38-9.56-16l-.62-.3h1.93a.63.63,0,0,0,.63-.63V27.37a.64.64,0,0,0-.63-.63h-1l.21-.25a11.23,11.23,0,0,1,1.86-1.73,1,1,0,0,0,.42-1.39,12.77,12.77,0,0,0-1-1.75s0,0-.06-.07a1.64,1.64,0,0,0-.53-.4,1.76,1.76,0,0,0-.93.05l-.09,0-2.19.84a.45.45,0,0,1-.47.07c-.09,0-.23-.11-.4-.39a6.62,6.62,0,0,1-.94-2.49.51.51,0,0,0-.29-.33.36.36,0,0,0-.41.07l0,0a13.75,13.75,0,0,0-2.33,2.56l-.23.35a3.94,3.94,0,0,1-.32.43l0,0c-.17.09-.45,0-.93-.26l-.13-.07a1.83,1.83,0,0,0-1.64-.26,1.63,1.63,0,0,0-.83,1.39,5.13,5.13,0,0,0,.81,2.6l.16.33.09.15a1.08,1.08,0,0,1,.11.18l.12.23H49.12a.63.63,0,0,0-.63.63V30.2a.64.64,0,0,0,.63.63h1.93l-.62.3c-5.45,2.63-9.56,9.52-9.56,16a10.79,10.79,0,0,0,1.29,5.38l.08.13-.13.08a11.75,11.75,0,0,0-2.53,2.07l-.58.58-.74-2.28a.64.64,0,0,0-.29-.37.51.51,0,0,0-.27-.08l-.16,0-5.46,1.44a.77.77,0,0,0-.36.25.49.49,0,0,0,0,.47l4.07,15.51a.71.71,0,0,0,.25.36.85.85,0,0,0,.32.12h.18l5.43-1.44a.61.61,0,0,0,.42-.72l-.65-2.38h.05l-2.58-9.74,1-1a11.76,11.76,0,0,1,2.39-1.93,5.31,5.31,0,0,1,.82-.42l.38-.18a7.29,7.29,0,0,1,6.93.68c1,.91,4.59.83,6.07.75h0a2.2,2.2,0,0,1,1.62.93,2.06,2.06,0,0,1-.12,1.5.23.23,0,0,1-.06.11v0l0,0c-.85,1.14-4.72,1.09-7,.87V58l-.11.85a21.1,21.1,0,0,0,2.78.18c1.5,0,3.52-.17,4.63-1a1.52,1.52,0,0,0,.38-.31l.06-.06.08,0a2.69,2.69,0,0,0,2.3-.49,19.8,19.8,0,0,1,2.11-1.59c1-.68,2-1.34,3-1.91a16.4,16.4,0,0,1,2.52-1.13l.59-.2c.05,0,2.72-.52,3.47.73l.06.1,0,0v0a2.78,2.78,0,0,1-1.2,3.19l-.26.18c-3.69,2.5-10.17,6.81-12.15,7.62l-.1,0a12,12,0,0,1-3.67.87H41.79v1.06H55.55a11.8,11.8,0,0,0,3.92-.87l.11,0c2.49-.89,12-7.48,12.67-8C74.51,55.65,74.21,53.6,73.67,52.67ZM50.33,23.57v-.14c0-.29.15-.61.35-.61h.07a1.94,1.94,0,0,1,.79.28,2.28,2.28,0,0,0,1.78.32,1.79,1.79,0,0,0,.78-.76l.06-.1a11.21,11.21,0,0,1,1.53-1.93l.19-.19.08.26a8,8,0,0,0,.83,1.8,1.58,1.58,0,0,0,1.07.84,1.41,1.41,0,0,0,.9-.18l2.3-.87h0a.38.38,0,0,1,.17-.05h.06l.05,0a.47.47,0,0,1,.1.18,9.7,9.7,0,0,1,.8,1.26l.22.47h-.17l0,0a11.48,11.48,0,0,0-2.66,2.66l0,.06H51.7l0-.1a4.51,4.51,0,0,0-.22-.44,4.29,4.29,0,0,1-.24-.48A5,5,0,0,1,50.33,23.57ZM49.42,30V27.81H61.49V30ZM68.1,51.88l0,0L68,52a28.24,28.24,0,0,0-7.23,4.48l-.2.15a1.8,1.8,0,0,1-1.1.31h-.2l.05-.2a2.15,2.15,0,0,0-.11-1.59,3.14,3.14,0,0,0-2.39-1.5h0c-1.87.11-4.92,0-5.49-.57L51.24,53a8.55,8.55,0,0,0-3.59-1.4,7.88,7.88,0,0,0-4.51.64l-.13.06-.07-.12a9.62,9.62,0,0,1-1.2-4.88,18.41,18.41,0,0,1,4-11C48.5,32.89,51.92,31,55.42,31s6.93,1.86,9.65,5.24a18.46,18.46,0,0,1,4,11A9.81,9.81,0,0,1,68.1,51.88Z"/><path class="cls-1" d="M53.1,32.64a.37.37,0,0,0-.31.15h0l-2,2.29a.65.65,0,0,0-.1.39.38.38,0,0,0,.14.24.34.34,0,0,0,.3.1.44.44,0,0,0,.35-.15l2-2.29a.51.51,0,0,0,.1-.38.34.34,0,0,0-.14-.24A.55.55,0,0,0,53.1,32.64Z"/><path class="cls-1" d="M55.42,33.51a.43.43,0,0,0-.43.43v3.74a.44.44,0,1,0,.87,0V33.94A.43.43,0,0,0,55.42,33.51Z"/><path class="cls-1" d="M57.74,32.65a.6.6,0,0,0-.32.1h0a.46.46,0,0,0,0,.63l2,2.29a.55.55,0,0,0,.34.14.81.81,0,0,0,.32-.11.46.46,0,0,0,0-.62l-2-2.29A.38.38,0,0,0,57.74,32.65Z"/><polygon class="cls-2" points="41.43 68.6 36.59 69.79 32.7 54.98 37.48 53.71 38.1 56.19 38.16 56.26 38.17 56.3 41.43 68.6"/></svg>