<svg id="Calque_1" data-name="Calque 1" xmlns="http://www.w3.org/2000/svg" viewBox="0 0 105.69 91.98"><defs><style>.cls-1{fill:#032552;}.cls-2{fill:#fff;}.cls-3{fill:#e83d47;}</style></defs><path class="cls-1" d="M74.82,35.35a.48.48,0,0,0,.48-.48.47.47,0,0,0-.07-.25L72,28.88l3.29-5.75a.53.53,0,0,0,0-.49.49.49,0,0,0-.42-.23H56.48V21.18A.49.49,0,0,0,56,20.7a.48.48,0,0,0-.48.48V39.81l-.31.06a3.82,3.82,0,0,0-2.63,1.93l-7.7,14-2.57-4.66A3.88,3.88,0,0,0,40,49.27a3.75,3.75,0,0,0-1.1-.16A3.87,3.87,0,0,0,37,49.6a3.93,3.93,0,0,0-1.54,1.54L24.77,70.57a.5.5,0,0,0,0,.36.51.51,0,0,0,.24.3.59.59,0,0,0,.23,0H74.82a.47.47,0,0,0,.48-.48.46.46,0,0,0-.06-.23L59.42,41.8a3.82,3.82,0,0,0-2.64-1.93l-.3-.06V35.35ZM26,70.32,36.31,51.6a2.93,2.93,0,0,1,4-1.16,2.82,2.82,0,0,1,1.16,1.16L51.77,70.32Zm48,0H52.86L45.42,56.8l2.41-4.18L52.2,50l2.56,1.55a.5.5,0,0,0,.5,0L57.81,50l2.57,1.55a.5.5,0,0,0,.5,0L63,50.27ZM57.42,41.1a3.08,3.08,0,0,1,1.16,1.16l3.94,7.16-1.88,1.14L58.07,49a.5.5,0,0,0-.5,0L55,50.56,52.46,49A.52.52,0,0,0,52,49l-3.36,2.05,4.84-8.8a2.92,2.92,0,0,1,1.76-1.41A3,3,0,0,1,57.42,41.1Z"/><path class="cls-1" d="M42.16,34.38a3.31,3.31,0,0,0-.55,0l-.27,0-.13-.26A5.81,5.81,0,0,0,35.91,31h-.06a5.81,5.81,0,0,0-5.31,3.43l-.14.31-.32-.11a4.6,4.6,0,0,0-1.37-.21,4,4,0,0,0-4,3.91,3.5,3.5,0,0,0,.14,1,.49.49,0,0,0,.47.36H45.61a.47.47,0,0,0,.46-.35,3.63,3.63,0,0,0,.14-1A4,4,0,0,0,42.16,34.38ZM25.67,38.66v-.39a3,3,0,0,1,3-2.92,3.29,3.29,0,0,1,1.74.48.49.49,0,0,0,.67-.16.31.31,0,0,0,.05-.12,4.94,4.94,0,0,1,9.41-.35.47.47,0,0,0,.61.31,3.53,3.53,0,0,1,1-.17,3.05,3.05,0,0,1,3.09,2.93v.39Z"/><path class="cls-1" d="M52.58,28.51a.49.49,0,0,0,0-1,2.94,2.94,0,0,1-2.95-2.94.48.48,0,0,0-.48-.48.49.49,0,0,0-.48.48,2.94,2.94,0,0,1-2.94,2.94.49.49,0,0,0,0,1,2.94,2.94,0,0,1,2.94,2.94.49.49,0,0,0,.48.48.48.48,0,0,0,.48-.48A3,3,0,0,1,52.58,28.51Zm-3.12.59-.31.41-.3-.41a4,4,0,0,0-.77-.77l-.41-.3.41-.31a4,4,0,0,0,.77-.77l.3-.41.31.41a3.75,3.75,0,0,0,.77.77l.41.31-.41.3A3.75,3.75,0,0,0,49.46,29.1Z"/><path class="cls-1" d="M66.75,45.14a3,3,0,0,1,2.94-3,.48.48,0,0,0,.48-.48.49.49,0,0,0-.48-.48,2.94,2.94,0,0,1-2.94-2.94.49.49,0,0,0-1,0,2.94,2.94,0,0,1-2.94,2.94.49.49,0,0,0-.48.48.48.48,0,0,0,.48.48,2.94,2.94,0,0,1,2.94,3,.49.49,0,0,0,1,0ZM65.19,42l-.41-.31.41-.3a4,4,0,0,0,.77-.77l.31-.41.3.41a4,4,0,0,0,.77.77l.41.3-.41.31a3.75,3.75,0,0,0-.77.77l-.3.41L66,42.79A3.75,3.75,0,0,0,65.19,42Z"/><path class="cls-1" d="M32.9,62.25a.86.86,0,0,0-.86.85v1.71a.86.86,0,1,0,1.71,0V63.1A.85.85,0,0,0,32.9,62.25Z"/><path class="cls-2" d="M32.9,66a1.23,1.23,0,0,1-1.23-1.23V63.1a1.23,1.23,0,1,1,2.46,0v1.71A1.23,1.23,0,0,1,32.9,66Zm0-3.42a.48.48,0,0,0-.48.48v1.71a.47.47,0,0,0,.48.48.48.48,0,0,0,.48-.48V63.1A.49.49,0,0,0,32.9,62.62Z"/><path class="cls-3" d="M56.48,23.37H74l-3,5.27a.44.44,0,0,0,0,.47l3,5.27H56.48Z"/><path class="cls-1" d="M60.28,59.68v1.71a.86.86,0,1,0,1.71,0V59.68a.86.86,0,0,0-.86-.85A.85.85,0,0,0,60.28,59.68Z"/><path class="cls-2" d="M61.13,62.62a1.23,1.23,0,0,1-1.23-1.23V59.68a1.23,1.23,0,0,1,2.46,0v1.71A1.23,1.23,0,0,1,61.13,62.62Zm0-3.42a.49.49,0,0,0-.48.48v1.71a.48.48,0,0,0,.48.48.47.47,0,0,0,.48-.48V59.68A.48.48,0,0,0,61.13,59.2Z"/><path class="cls-1" d="M57.71,61.39a.87.87,0,0,0-.86.86V64a.86.86,0,0,0,1.72,0V62.25A.87.87,0,0,0,57.71,61.39Z"/><path class="cls-2" d="M57.71,65.19A1.23,1.23,0,0,1,56.48,64V62.25a1.23,1.23,0,0,1,2.46,0V64A1.23,1.23,0,0,1,57.71,65.19Zm0-3.42a.48.48,0,0,0-.48.48V64a.48.48,0,1,0,1,0V62.25A.48.48,0,0,0,57.71,61.77Z"/><path class="cls-1" d="M35.47,59.68a.86.86,0,0,0-.86.86v1.71a.86.86,0,0,0,1.71,0V60.54A.86.86,0,0,0,35.47,59.68Z"/><path class="cls-2" d="M35.47,63.48a1.23,1.23,0,0,1-1.23-1.23V60.54a1.23,1.23,0,0,1,2.46,0v1.71A1.24,1.24,0,0,1,35.47,63.48Zm0-3.42a.47.47,0,0,0-.48.48v1.71a.48.48,0,0,0,.48.48.49.49,0,0,0,.48-.48V60.54A.48.48,0,0,0,35.47,60.06Z"/></svg>