<svg id="Calque_1" data-name="Calque 1" xmlns="http://www.w3.org/2000/svg" viewBox="0 0 105.69 91.98"><defs><style>.cls-1{fill:#032552;}.cls-2{fill:#e83d47;}</style></defs><path class="cls-1" d="M64.3,23.38A12.9,12.9,0,0,0,53.1,30l-.26.47L52.58,30a12.76,12.76,0,0,0-17.36-5h0a12.79,12.79,0,0,0-6.63,11.22c0,13.92,16.64,32.43,24.25,32.43S77.09,50.1,77.09,36.18A12.84,12.84,0,0,0,64.3,23.38ZM75.73,39.5c-1,5.81-4.72,12.7-10.11,18.88-4.78,5.49-9.92,9.18-12.78,9.18C46.93,67.56,32.2,52.13,30,39.5l-.06-.35h3L36,45.41a.52.52,0,0,0,.47.29H49.57a.52.52,0,0,0,.47-.29l2.8-5.61,2.8,5.61a.53.53,0,0,0,.48.29H69.21a.52.52,0,0,0,.47-.29l3.12-6.26h3Zm-41.68-.35h8.19l-2.15,5a.52.52,0,0,0,0,.21v.29H36.8Zm10.55,5.5,2.06-5.5H52l-2.75,5.5Zm9.09-5.5h8.22l-2.06,5.5H56.44Zm10.54,5.5,2.06-5.5h5.34l-2.75,5.5Zm11.7-6.54H29.76l0-.27a16.26,16.26,0,0,1-.09-1.66A11.75,11.75,0,0,1,52.36,32a.52.52,0,0,0,.67.3.51.51,0,0,0,.31-.3A11.72,11.72,0,0,1,68.49,25.2a11.81,11.81,0,0,1,7.56,11A16.26,16.26,0,0,1,76,37.84Z"/><path class="cls-1" d="M46.82,50.09a.52.52,0,0,0-.52-.53.53.53,0,0,0-.53.53,7.09,7.09,0,0,0,7.07,7.06.52.52,0,1,0,0-1A6,6,0,0,1,46.82,50.09Z"/><polygon class="cls-2" points="43.48 44.65 41.02 44.65 43.37 39.15 45.54 39.15 43.48 44.65"/><polygon class="cls-2" points="63.12 44.65 60.97 44.65 63.03 39.15 65.18 39.15 63.12 44.65"/></svg>