<?xml version="1.0" encoding="utf-8"?>
<!-- Generator: Adobe Illustrator 24.1.0, SVG Export Plug-In . SVG Version: 6.00 Build 0)  -->
<svg version="1.1" id="Calque_1" xmlns="http://www.w3.org/2000/svg" xmlns:xlink="http://www.w3.org/1999/xlink" x="0px" y="0px"
	 viewBox="0 0 1015.8 247.7" style="enable-background:new 0 0 1015.8 247.7;" xml:space="preserve">
<style type="text/css">
	.st0{fill:#E83D47;}
</style>
<path class="st0" d="M942.6,117.6c-1.3-1.5-2.9-2.6-4.7-3.5c-1.9-0.9-4-1.4-6.1-1.3c-2.2,0-4.3,0.4-6.3,1.2
	c-1.8,0.8-3.5,1.9-4.9,3.4c-1.4,1.5-2.5,3.2-3.2,5.1c-0.8,2-1.3,4.1-1.3,6.3h30.9c-0.2-2.1-0.6-4.1-1.3-6
	C944.9,120.8,943.9,119.1,942.6,117.6z"/>
<path class="st0" d="M886,16.9c-60.8,0-110.2,49.3-110.2,110.1c0,60.8,49.3,110.2,110.1,110.2c60.8,0,110.2-49.3,110.2-110.1
	c0,0,0,0,0,0C996.1,66.2,946.8,16.9,886,16.9z M819.6,164h-16.2v-15.7h16.2V164z M892.9,146c-1,3.6-2.6,7-4.8,10.1
	c-4.5,6.2-11.9,9.8-19.6,9.6c-2,0-4.1-0.1-6.1-0.4c-2-0.3-4-0.8-5.9-1.6c-1.8-0.7-3.5-1.8-5.1-3c-1.6-1.3-2.9-3-3.8-4.9h-0.2v8.2
	H835V81h13.3v30.7h0.2c0.9-1.5,2.1-2.8,3.4-4c1.3-1.2,2.8-2.2,4.4-3c1.6-0.8,3.3-1.4,5-1.9c1.7-0.4,3.4-0.6,5.2-0.6
	c4.3-0.1,8.5,0.8,12.4,2.5c3.4,1.6,6.4,3.9,8.8,6.9c2.4,3,4.2,6.5,5.2,10.2c1.2,4,1.8,8.2,1.8,12.4C894.6,138.1,894,142.1,892.9,146
	z M960.2,137.4H916c0,2.3,0.3,4.6,1,6.7c0.6,2.1,1.6,4,3,5.7c1.4,1.7,3.1,3,5,3.9c2.3,1,4.7,1.5,7.2,1.5c3.9,0,7-0.8,9.3-2.5
	c2.5-1.9,4.4-4.5,5.3-7.5h12.5c-0.6,3.1-1.9,6.1-3.6,8.7c-1.7,2.5-3.7,4.7-6.2,6.4c-2.5,1.8-5.2,3.1-8.1,3.9c-3,0.9-6.2,1.4-9.3,1.4
	c-4.3,0.1-8.6-0.7-12.6-2.3c-3.5-1.5-6.7-3.7-9.2-6.5c-2.6-2.9-4.5-6.3-5.7-10c-1.3-4.1-2-8.5-1.9-12.8c0-4.1,0.6-8.2,2-12.1
	c1.3-3.7,3.3-7.1,5.8-10.1c5.3-6.2,13.1-9.6,21.2-9.5c4.4-0.1,8.8,1,12.7,3c3.7,1.9,6.8,4.6,9.3,7.8c2.5,3.3,4.4,7.2,5.4,11.2
	C960.4,128.6,960.7,133,960.2,137.4L960.2,137.4z"/>
<path class="st0" d="M877.1,119.3c-1.4-2-3.2-3.6-5.2-4.8c-2.2-1.2-4.7-1.8-7.2-1.8c-5.6,0-9.8,1.9-12.6,5.8
	c-2.8,3.9-4.2,9-4.2,15.4c0,2.8,0.3,5.7,1.1,8.4c0.6,2.4,1.8,4.7,3.3,6.7c1.4,1.8,3.2,3.3,5.3,4.4c4.7,2.3,10.2,2.2,14.8-0.2
	c2.1-1.2,3.8-2.8,5.2-4.8c1.4-2,2.4-4.3,2.9-6.7c0.6-2.5,0.9-5.1,0.9-7.7c0-2.7-0.3-5.3-1-7.9C879.6,123.7,878.5,121.4,877.1,119.3z
	"/>
<path class="st0" d="M73.5,107.7c-0.6-2.3-1.4-4.5-2.5-6.7c-2.2-4.1-5.8-7.2-10.2-8.7c-2.6-0.9-5.3-1.3-8-1.2
	c-4-0.1-7.9,0.8-11.5,2.7c-3.2,1.7-5.9,4.2-7.9,7.2c-2.1,3.1-3.6,6.5-4.5,10.1c-1.9,7.6-1.9,15.6,0,23.3c0.9,3.6,2.4,7.1,4.5,10.2
	c2,3,4.7,5.4,7.9,7.1c3.5,1.9,7.5,2.8,11.5,2.7c3,0.1,5.9-0.5,8.6-1.7c2.4-1.1,4.6-2.7,6.4-4.6c1.8-2,3.2-4.4,4.2-6.9
	c1-2.7,1.7-5.6,2-8.5h14.2c-0.2,4.7-1.3,9.3-3.2,13.6c-1.7,4-4.3,7.6-7.4,10.6c-3.1,3-6.9,5.4-10.9,6.9c-4.4,1.7-9.1,2.5-13.8,2.4
	c-5.8,0.1-11.5-1.1-16.7-3.4c-4.8-2.2-9.1-5.4-12.5-9.4c-3.5-4.1-6.1-8.8-7.9-13.9c-3.6-10.9-3.6-22.7,0-33.6
	c1.7-5.1,4.4-9.8,7.9-13.8c3.5-4,7.7-7.2,12.5-9.4c5.2-2.4,10.9-3.6,16.7-3.5c4.5,0,8.9,0.6,13.1,1.9c3.9,1.2,7.6,3.1,10.9,5.6
	c3.1,2.4,5.7,5.4,7.6,8.9c2,3.7,3.2,7.8,3.6,12L73.5,107.7z"/>
<path class="st0" d="M127.1,165.9c-4.4,0.1-8.8-0.7-12.9-2.4c-3.6-1.5-6.9-3.7-9.5-6.6c-2.7-2.9-4.7-6.3-5.9-10
	c-2.7-8.3-2.7-17.2,0-25.5c1.3-3.7,3.3-7.1,5.9-10c2.7-2.8,5.9-5.1,9.5-6.6c8.3-3.2,17.4-3.2,25.7,0c3.6,1.5,6.9,3.7,9.5,6.6
	c2.7,2.9,4.7,6.3,5.9,10c2.7,8.3,2.7,17.2,0,25.5c-1.3,3.7-3.3,7.1-5.9,10c-2.7,2.8-5.9,5.1-9.5,6.6
	C135.9,165.2,131.5,166,127.1,165.9z M127.1,155.5c2.7,0.1,5.3-0.6,7.7-1.9c2.1-1.2,4-2.9,5.4-4.9c1.4-2.1,2.5-4.4,3.1-6.8
	c1.3-5.1,1.3-10.4,0-15.4c-0.6-2.4-1.6-4.7-3.1-6.8c-1.4-2-3.2-3.6-5.4-4.8c-4.8-2.5-10.5-2.5-15.4,0c-2.1,1.2-3.9,2.8-5.3,4.8
	c-1.4,2.1-2.5,4.4-3.1,6.8c-1.3,5.1-1.3,10.4,0,15.4c0.6,2.4,1.7,4.7,3.1,6.8c1.4,2,3.2,3.7,5.3,4.9
	C121.8,154.9,124.5,155.5,127.1,155.5z"/>
<path class="st0" d="M168.6,104.2h12.6v8.4h0.4c1-1.4,2.1-2.8,3.3-4.1c1.1-1.2,2.5-2.3,3.9-3.1c1.5-0.9,3.2-1.6,4.9-2
	c2.1-0.5,4.2-0.8,6.4-0.8c3.5,0,7,0.8,10.2,2.4c3.1,1.6,5.5,4.3,6.7,7.6c2.1-2.9,4.7-5.4,7.8-7.3c3.4-1.9,7.2-2.8,11.1-2.7
	c6.4,0,11.3,1.5,14.8,4.7c3.5,3.1,5.3,8.3,5.3,15.6v41.5h-13.3v-35.2c0-2.4-0.1-4.6-0.2-6.6c-0.1-1.8-0.6-3.5-1.3-5.1
	c-0.7-1.4-1.9-2.6-3.3-3.3c-1.9-0.9-3.9-1.2-6-1.2c-4.5,0-7.8,1.4-9.8,4.2s-3,6.8-3,11.9v35.2h-13.3v-38.6c0-4.2-0.8-7.4-2.3-9.5
	c-1.5-2.1-4.3-3.2-8.3-3.2c-1.7,0-3.4,0.3-4.9,1c-1.6,0.7-3,1.7-4.2,3c-1.3,1.4-2.3,3.1-2.9,4.9c-0.8,2.1-1.1,4.4-1.1,6.6v35.7
	h-13.3V104.2z"/>
<path class="st0" d="M270.1,104.2h12.6v8.1h0.2c1.7-3.3,4.4-6,7.8-7.5c3.4-1.5,7.1-2.3,10.8-2.3c4.3-0.1,8.5,0.8,12.4,2.5
	c3.4,1.6,6.4,3.9,8.8,6.9c2.4,3,4.2,6.5,5.3,10.2c1.2,4,1.8,8.2,1.7,12.4c0,4-0.5,7.9-1.6,11.8c-1,3.6-2.6,7-4.8,10.1
	c-4.5,6.3-11.9,9.9-19.6,9.6c-2,0-3.9-0.2-5.8-0.5c-1.9-0.3-3.8-0.9-5.6-1.7c-1.8-0.8-3.4-1.8-4.9-3c-1.5-1.2-2.8-2.6-3.8-4.2h-0.2
	v30h-13.3V104.2z M316.4,134.3c0-2.7-0.3-5.3-1-7.9c-0.6-2.4-1.7-4.7-3.1-6.8c-1.4-2-3.2-3.6-5.2-4.8c-2.2-1.2-4.7-1.8-7.2-1.8
	c-5.6,0-9.8,1.9-12.6,5.8c-2.8,3.9-4.2,9-4.2,15.5c0,2.9,0.3,5.7,1.1,8.4c0.7,2.4,1.8,4.7,3.3,6.7c1.4,1.8,3.2,3.3,5.3,4.4
	c2.2,1.1,4.7,1.7,7.2,1.6c2.7,0.1,5.3-0.6,7.7-1.9c2.1-1.2,3.8-2.9,5.2-4.8c1.4-2,2.4-4.3,2.9-6.8
	C316.1,139.5,316.4,136.9,316.4,134.3L316.4,134.3z"/>
<path class="st0" d="M391.2,150.9c-0.1,1.2,0.1,2.4,0.6,3.5c0.6,0.8,1.5,1.2,2.5,1.1h1.4c0.6,0,1.3-0.1,1.9-0.2v9.2
	c-0.5,0.1-1.1,0.3-1.8,0.5s-1.5,0.4-2.3,0.5c-0.8,0.2-1.5,0.3-2.3,0.4c-0.8,0.1-1.4,0.1-2,0.1c-2.4,0.1-4.7-0.5-6.8-1.6
	c-1.8-1.1-3-3-3.5-5.7c-2.7,2.6-6.1,4.5-9.7,5.6c-3.6,1.1-7.3,1.7-11.1,1.8c-2.6,0-5.3-0.4-7.8-1.1c-2.4-0.7-4.6-1.8-6.6-3.2
	c-1.9-1.4-3.5-3.3-4.5-5.5c-1.2-2.4-1.8-5.1-1.7-7.7c-0.1-3.2,0.5-6.3,2-9.1c1.3-2.2,3.1-4.1,5.4-5.5c2.3-1.4,4.8-2.3,7.4-2.9
	c2.7-0.6,5.5-1,8.3-1.3c2.3-0.5,4.6-0.8,6.9-1c1.9-0.2,3.9-0.5,5.8-1c1.5-0.4,2.8-1.1,4-2.2c1.1-1.2,1.6-2.8,1.5-4.4
	c0.1-1.5-0.4-3-1.2-4.2c-0.8-1.1-1.8-1.9-3-2.5c-1.3-0.6-2.6-1-4-1.2c-1.4-0.2-2.8-0.3-4.2-0.3c-3.2-0.1-6.4,0.7-9.2,2.3
	c-2.4,1.6-4,4.3-4.1,7.2h-13.2c0.1-3.4,1-6.7,2.8-9.7c1.6-2.5,3.7-4.6,6.2-6.2c2.6-1.6,5.5-2.7,8.5-3.3c3.2-0.6,6.5-0.9,9.8-0.9
	c2.9,0,5.9,0.3,8.7,0.9c2.7,0.6,5.3,1.6,7.7,3c2.2,1.3,4.1,3.2,5.5,5.4c1.5,2.4,2.2,5.2,2.1,8.1V150.9z M378,134.2
	c-2.2,1.4-4.8,2.2-7.4,2.4c-3,0.3-5.9,0.7-8.9,1.2c-1.4,0.2-2.7,0.6-4.1,1c-1.2,0.4-2.4,1-3.5,1.8c-1,0.8-1.8,1.7-2.4,2.9
	c-0.6,1.4-0.9,2.9-0.9,4.4c0,1.4,0.4,2.7,1.3,3.7c0.9,1,1.9,1.8,3.1,2.4c1.3,0.6,2.6,1,4,1.2c1.3,0.2,2.6,0.3,3.9,0.4
	c1.6,0,3.2-0.2,4.8-0.6c1.7-0.4,3.3-1.1,4.8-2c1.5-0.9,2.8-2.1,3.8-3.6c1-1.6,1.6-3.4,1.5-5.3L378,134.2z"/>
<path class="st0" d="M405.6,104.2H418v11.6h0.2c0.4-1.7,1.2-3.3,2.3-4.8c1.2-1.6,2.5-3,4.1-4.2c1.6-1.3,3.4-2.3,5.3-3.1
	c1.9-0.8,3.9-1.2,5.9-1.2c1.1,0,2.1,0,3.2,0.1l1.8,0.2v12.8c-0.9-0.2-1.9-0.3-2.9-0.4c-0.9-0.1-1.9-0.2-2.9-0.2
	c-2.2,0-4.3,0.4-6.3,1.3c-2,0.9-3.8,2.3-5.2,4c-1.6,1.9-2.7,4.1-3.5,6.5c-0.9,2.9-1.3,5.8-1.3,8.8v28.6h-13.3V104.2z"/>
<path class="st0" d="M496.9,150.9c-0.1,1.2,0.1,2.4,0.6,3.5c0.6,0.8,1.5,1.2,2.5,1.1h1.4c0.6,0,1.3-0.1,1.9-0.2v9.2
	c-0.5,0.1-1.1,0.3-1.8,0.5s-1.5,0.4-2.3,0.5s-1.6,0.3-2.3,0.4s-1.4,0.1-2,0.1c-2.4,0.1-4.7-0.5-6.8-1.6c-1.8-1.1-3-3-3.5-5.7
	c-2.7,2.6-6.1,4.5-9.7,5.6c-3.6,1.1-7.3,1.7-11.1,1.8c-2.6,0-5.3-0.4-7.8-1.1c-2.4-0.7-4.6-1.8-6.6-3.2c-1.9-1.5-3.5-3.3-4.5-5.5
	c-1.2-2.4-1.8-5.1-1.7-7.7c-0.1-3.2,0.5-6.3,2-9.1c1.3-2.2,3.1-4.1,5.4-5.5c2.3-1.4,4.8-2.3,7.5-2.9c2.7-0.6,5.5-1,8.3-1.3
	c2.3-0.5,4.6-0.8,6.9-1c1.9-0.2,3.9-0.5,5.8-1c1.5-0.4,2.9-1.1,4-2.2c1-1.2,1.6-2.8,1.5-4.4c0.1-1.5-0.4-3-1.2-4.2
	c-0.8-1.1-1.8-1.9-3-2.5c-1.3-0.6-2.6-1-4-1.2c-1.4-0.2-2.8-0.3-4.2-0.3c-3.2-0.1-6.4,0.7-9.2,2.3c-2.4,1.6-4,4.3-4.1,7.2h-13.3
	c0.1-3.4,1.1-6.7,2.8-9.7c1.6-2.5,3.7-4.6,6.2-6.2c2.6-1.6,5.5-2.7,8.5-3.3c3.2-0.6,6.5-0.9,9.8-0.9c2.9,0,5.9,0.3,8.7,0.9
	c2.7,0.6,5.3,1.6,7.7,3c2.2,1.3,4.1,3.2,5.5,5.4c1.5,2.4,2.2,5.2,2.1,8.1L496.9,150.9z M483.6,134.2c-2.2,1.4-4.8,2.2-7.5,2.4
	c-3,0.3-5.9,0.7-8.8,1.2c-1.4,0.2-2.7,0.6-4.1,1c-1.2,0.4-2.4,1-3.5,1.8c-1,0.8-1.8,1.8-2.4,2.9c-0.6,1.4-0.9,2.9-0.9,4.4
	c0,1.4,0.4,2.7,1.3,3.7c0.8,1,1.9,1.8,3.1,2.4c1.3,0.6,2.6,1,4,1.2c1.3,0.2,2.6,0.3,3.9,0.4c1.6,0,3.2-0.2,4.8-0.6
	c1.7-0.4,3.3-1.1,4.8-2c1.5-0.9,2.8-2.1,3.8-3.6c1-1.6,1.6-3.4,1.5-5.3L483.6,134.2z"/>
<path class="st0" d="M505.1,104.2h10v-18h13.3v18h12v9.9h-12v32.1c0,1.2,0,2.4,0.2,3.6c0.1,0.9,0.4,1.8,0.8,2.6
	c0.5,0.7,1.1,1.3,1.9,1.6c1.1,0.4,2.3,0.6,3.5,0.5c0.9,0,1.9,0,2.8-0.1c0.9,0,1.9-0.2,2.8-0.4v10.2l-4.3,0.5
	c-1.4,0.2-2.9,0.2-4.3,0.2c-2.8,0.1-5.7-0.3-8.4-1c-1.9-0.5-3.6-1.5-5-2.9c-1.2-1.4-2.1-3-2.5-4.8c-0.5-2.2-0.7-4.4-0.8-6.6v-35.5
	h-10L505.1,104.2z"/>
<path class="st0" d="M560.3,137.7c0,2.3,0.3,4.6,1,6.7c0.6,2.1,1.6,4,3,5.7c1.4,1.7,3.1,3,5,3.9c2.3,1,4.7,1.5,7.2,1.5
	c3.3,0.2,6.6-0.7,9.4-2.5c2.5-1.9,4.4-4.5,5.3-7.5h12.5c-1.2,6.1-4.7,11.5-9.8,15.2c-2.4,1.8-5.2,3.1-8.1,4c-3,0.9-6.2,1.4-9.4,1.3
	c-4.3,0.1-8.6-0.7-12.6-2.3c-3.5-1.5-6.7-3.7-9.2-6.5c-2.6-2.9-4.5-6.3-5.7-10c-1.3-4.1-2-8.5-1.9-12.8c0-4.1,0.6-8.3,2-12.2
	c1.3-3.7,3.3-7.2,5.9-10.2c5.3-6.2,13.1-9.6,21.2-9.5c4.4-0.1,8.8,1,12.7,3c3.7,1.9,6.9,4.6,9.4,7.8c2.5,3.4,4.4,7.2,5.4,11.2
	c1.1,4.3,1.4,8.7,0.9,13.1L560.3,137.7z M591.3,128.9c-0.2-2.1-0.6-4.1-1.3-6c-0.7-1.9-1.7-3.6-3-5.1c-1.3-1.5-2.9-2.6-4.7-3.5
	c-1.9-0.9-4-1.4-6.1-1.3c-2.2,0-4.3,0.4-6.3,1.2c-1.8,0.8-3.5,1.9-4.9,3.4c-1.4,1.5-2.5,3.2-3.2,5.1c-0.8,2-1.3,4.1-1.3,6.3
	L591.3,128.9z"/>
<path class="st0" d="M667.5,164.3h-13v-8.4h-0.2c-1.7,3.1-4.2,5.6-7.3,7.3c-3,1.8-6.4,2.7-9.8,2.7c-7.9,0-13.6-2-17.2-5.9
	c-3.5-3.9-5.3-9.8-5.3-17.7v-38.2h13.2V141c0,5.3,1,9,3,11.2c2,2.2,4.8,3.3,8.5,3.3c2.4,0.1,4.8-0.4,7-1.3c1.8-0.8,3.3-2,4.5-3.4
	c1.2-1.5,2.1-3.3,2.5-5.2c0.5-2.1,0.8-4.3,0.8-6.5v-34.9h13.3V164.3z"/>
<path class="st0" d="M681.4,104.2h12.5v11.6h0.2c0.4-1.7,1.2-3.3,2.3-4.8c1.2-1.6,2.5-3,4.1-4.2c1.6-1.3,3.4-2.3,5.3-3.1
	c1.9-0.8,3.9-1.2,5.9-1.2c1.1,0,2.1,0,3.2,0.1l1.8,0.2v12.8c-0.9-0.2-1.9-0.3-2.8-0.4c-0.9-0.1-1.9-0.2-2.8-0.2
	c-2.2,0-4.3,0.4-6.3,1.3c-2,0.9-3.8,2.3-5.2,4c-1.6,1.9-2.8,4.1-3.5,6.5c-0.9,2.9-1.3,5.8-1.3,8.8v28.6h-13.3V104.2z"/>
</svg>
